<svg xmlns="http://www.w3.org/2000/svg" width="1440" height="992" viewBox="0 0 1440 992" font-family="Inter, sans-serif">
<rect x="0.0" y="0.0" width="1440.0" height="992.0" rx="0" fill="#0a1120"/>
<rect x="0.0" y="0.0" width="76.0" height="900.0" rx="0" fill="#0c1526"/>
<line x1="76.0" y1="0.0" x2="76.0" y2="900.0" stroke="#20304c" stroke-width="1"/>
<rect x="22.0" y="26.0" width="32.0" height="32.0" rx="9" fill="#0b1624"/>
<circle cx="38.0" cy="42.0" r="9.0" fill="none" stroke="#38bdf8" stroke-width="2.4"/>
<circle cx="38.0" cy="42.0" r="3.4" fill="#38bdf8"/>
<rect x="10.0" y="94.0" width="56.0" height="44.0" rx="11" fill="#38bdf8" opacity="0.16"/>
<rect x="0.0" y="94.0" width="3.0" height="44.0" rx="2" fill="#38bdf8"/>
<path d="M 29.0 116 L 38.0 104 L 47.0 116 M 32.0 113 L 32.0 119 L 44.0 119 L 44.0 113" fill="none" stroke="#38bdf8" stroke-width="2" stroke-linejoin="round" stroke-linecap="round"/>
<rect x="31.0" y="161.0" width="8.0" height="8.0" rx="2" fill="none" stroke="#5b6b86" stroke-width="2"/>
<rect x="31.0" y="171.0" width="8.0" height="8.0" rx="2" fill="none" stroke="#5b6b86" stroke-width="2"/>
<rect x="41.0" y="161.0" width="8.0" height="8.0" rx="2" fill="none" stroke="#5b6b86" stroke-width="2"/>
<rect x="41.0" y="171.0" width="8.0" height="8.0" rx="2" fill="none" stroke="#5b6b86" stroke-width="2"/>
<rect x="28.0" y="220.0" width="13.0" height="12.0" rx="2" fill="none" stroke="#5b6b86" stroke-width="2"/>
<path d="M 42.0 224 L 48.0 220 L 48.0 232 L 42.0 228 Z" fill="none" stroke="#5b6b86" stroke-width="2" stroke-linejoin="round" stroke-linecap="round"/>
<path d="M 29.0 292 L 29.0 276 M 29.0 292 L 47.0 292" fill="none" stroke="#5b6b86" stroke-width="2" stroke-linejoin="round" stroke-linecap="round"/>
<path d="M 33.0 287 L 37.0 281 L 41.0 284 L 46.0 277" fill="none" stroke="#5b6b86" stroke-width="2" stroke-linejoin="round" stroke-linecap="round"/>
<path d="M 31.0 346 Q 31.0 334 38.0 334 Q 45.0 334 45.0 346 Z" fill="none" stroke="#5b6b86" stroke-width="2" stroke-linejoin="round" stroke-linecap="round"/>
<line x1="36.0" y1="350.0" x2="40.0" y2="350.0" stroke="#5b6b86" stroke-width="2"/>
<circle cx="38.0" cy="400.0" r="6.0" fill="none" stroke="#5b6b86" stroke-width="2"/>
<circle cx="38.0" cy="400.0" r="2.0" fill="#5b6b86"/>
<rect x="76.0" y="0.0" width="1364.0" height="64.0" rx="0" fill="#122341"/>
<line x1="76.0" y1="64.0" x2="1440.0" y2="64.0" stroke="#20304c" stroke-width="1"/>
<text x="102.0" y="30.0" font-size="17" fill="#f1f5f9" font-weight="700" text-anchor="start">Head Dashboard — Factory Overview</text>
<text x="102.0" y="48.0" font-size="11.5" fill="#7a8aa3" font-weight="400" text-anchor="start">Главная панель · Обзор завода</text>
<rect x="1080.0" y="17.0" width="190.0" height="30.0" rx="8" fill="#13233d" stroke="#20304c" stroke-width="1"/>
<circle cx="1098.0" cy="32.0" r="5.0" fill="none" stroke="#5b6b86" stroke-width="1.6"/>
<line x1="1102.0" y1="36.0" x2="1107.0" y2="41.0" stroke="#5b6b86" stroke-width="1.6"/>
<text x="1114.0" y="36.0" font-size="11.5" fill="#5b6b86" font-weight="400" text-anchor="start">Search…</text>
<circle cx="1290.0" cy="32.0" r="4.0" fill="#34d399"/>
<text x="1300.0" y="36.0" font-size="12" fill="#c4cee0" font-weight="600" text-anchor="start" font-family="ui-monospace, monospace">14:32:07</text>
<circle cx="1400.0" cy="32.0" r="15.0" fill="#a78bfa" opacity="0.35"/>
<text x="1400.0" y="37.0" font-size="11" fill="#f1f5f9" font-weight="700" text-anchor="middle">OJ</text>
<rect x="417.0" y="16.0" width="50.0" height="20.0" rx="10" fill="#34d399" opacity="0.16"/>
<circle cx="429.0" cy="26.0" r="3.0" fill="#34d399"/>
<text x="437.0" y="30.0" font-size="10.5" fill="#34d399" font-weight="650" text-anchor="start">LIVE</text>
<rect x="100.0" y="88.0" width="244.0" height="104.0" rx="13" fill="#0f1b30" stroke="#20304c" stroke-width="1"/>
<rect x="100.0" y="88.0" width="4.0" height="104.0" rx="2" fill="#38bdf8"/>
<text x="118.0" y="114.0" font-size="11.5" fill="#7a8aa3" font-weight="600" text-anchor="start" letter-spacing="0.3">OVERALL OEE</text>
<text x="117.0" y="150.0" font-size="30" fill="#f1f5f9" font-weight="750" text-anchor="start">82.4</text>
<text x="191.0" y="150.0" font-size="13" fill="#7a8aa3" font-weight="600" text-anchor="start">%</text>
<text x="118.0" y="176.0" font-size="11.5" fill="#34d399" font-weight="650" text-anchor="start">▲ +2.1% wk</text>
<rect x="364.0" y="88.0" width="244.0" height="104.0" rx="13" fill="#0f1b30" stroke="#20304c" stroke-width="1"/>
<rect x="364.0" y="88.0" width="4.0" height="104.0" rx="2" fill="#34d399"/>
<text x="382.0" y="114.0" font-size="11.5" fill="#7a8aa3" font-weight="600" text-anchor="start" letter-spacing="0.3">PRODUCTION TODAY</text>
<text x="381.0" y="150.0" font-size="30" fill="#f1f5f9" font-weight="750" text-anchor="start">14,208</text>
<text x="489.0" y="150.0" font-size="13" fill="#7a8aa3" font-weight="600" text-anchor="start">u</text>
<text x="382.0" y="176.0" font-size="11.5" fill="#34d399" font-weight="650" text-anchor="start">▲ +5.4%</text>
<rect x="628.0" y="88.0" width="244.0" height="104.0" rx="13" fill="#0f1b30" stroke="#20304c" stroke-width="1"/>
<rect x="628.0" y="88.0" width="4.0" height="104.0" rx="2" fill="#fbbf24"/>
<text x="646.0" y="114.0" font-size="11.5" fill="#7a8aa3" font-weight="600" text-anchor="start" letter-spacing="0.3">ACTIVE ALERTS</text>
<text x="645.0" y="150.0" font-size="30" fill="#f1f5f9" font-weight="750" text-anchor="start">3</text>
<text x="646.0" y="176.0" font-size="11.5" fill="#34d399" font-weight="650" text-anchor="start">▲ -2</text>
<rect x="892.0" y="88.0" width="244.0" height="104.0" rx="13" fill="#0f1b30" stroke="#20304c" stroke-width="1"/>
<rect x="892.0" y="88.0" width="4.0" height="104.0" rx="2" fill="#34d399"/>
<text x="910.0" y="114.0" font-size="11.5" fill="#7a8aa3" font-weight="600" text-anchor="start" letter-spacing="0.3">SAFETY INCIDENTS</text>
<text x="909.0" y="150.0" font-size="30" fill="#f1f5f9" font-weight="750" text-anchor="start">0</text>
<text x="910.0" y="176.0" font-size="11.5" fill="#34d399" font-weight="650" text-anchor="start">▲ 0 · 42 days</text>
<rect x="1156.0" y="88.0" width="244.0" height="104.0" rx="13" fill="#0f1b30" stroke="#20304c" stroke-width="1"/>
<rect x="1156.0" y="88.0" width="4.0" height="104.0" rx="2" fill="#38bdf8"/>
<text x="1174.0" y="114.0" font-size="11.5" fill="#7a8aa3" font-weight="600" text-anchor="start" letter-spacing="0.3">CAMERAS ONLINE</text>
<text x="1173.0" y="150.0" font-size="30" fill="#f1f5f9" font-weight="750" text-anchor="start">96</text>
<text x="1213.0" y="150.0" font-size="13" fill="#7a8aa3" font-weight="600" text-anchor="start">/98</text>
<text x="1174.0" y="176.0" font-size="11.5" fill="#fb7185" font-weight="650" text-anchor="start">▼ 2 offline</text>
<rect x="100.0" y="212.0" width="806.0" height="300.0" rx="14" fill="#0f1b30" stroke="#20304c" stroke-width="1"/>
<text x="118.0" y="239.0" font-size="14" fill="#f1f5f9" font-weight="650" text-anchor="start">Production — Plan vs Fact</text>
<text x="118.0" y="255.0" font-size="11" fill="#7a8aa3" font-weight="400" text-anchor="start">Производство · план / факт</text>
<rect x="720.0" y="228.0" width="80.0" height="22.0" rx="7" fill="#38bdf8" opacity="0.16"/>
<circle cx="730.0" cy="239.0" r="3.0" fill="#38bdf8"/>
<text x="740.0" y="243.0" font-size="10.5" fill="#38bdf8" font-weight="600" text-anchor="start">Fact</text>
<rect x="808.0" y="228.0" width="82.0" height="22.0" rx="7" fill="#fbbf24" opacity="0.14"/>
<circle cx="818.0" cy="239.0" r="3.0" fill="#fbbf24"/>
<text x="828.0" y="243.0" font-size="10.5" fill="#fbbf24" font-weight="600" text-anchor="start">Plan</text>
<line x1="124.0" y1="270.0" x2="882.0" y2="270.0" stroke="#20304c" stroke-width="1" opacity="0.5"/>
<line x1="124.0" y1="320.0" x2="882.0" y2="320.0" stroke="#20304c" stroke-width="1" opacity="0.5"/>
<line x1="124.0" y1="370.0" x2="882.0" y2="370.0" stroke="#20304c" stroke-width="1" opacity="0.5"/>
<line x1="124.0" y1="420.0" x2="882.0" y2="420.0" stroke="#20304c" stroke-width="1" opacity="0.5"/>
<line x1="124.0" y1="470.0" x2="882.0" y2="470.0" stroke="#20304c" stroke-width="1" opacity="0.5"/>
<path d="M 124.0 345.0 L 218.8 345.0 L 313.5 332.5 L 408.2 332.5 L 503.0 320.0 L 597.8 313.8 L 692.5 307.5 L 787.2 305.0 L 882.0 301.2 L 882.0 470.0 L 124.0 470.0 Z" fill="#fbbf24" opacity="0.08"/>
<path d="M 124.0 345.0 L 218.8 345.0 L 313.5 332.5 L 408.2 332.5 L 503.0 320.0 L 597.8 313.8 L 692.5 307.5 L 787.2 305.0 L 882.0 301.2" fill="none" stroke="#fbbf24" stroke-width="2.4" stroke-linejoin="round" stroke-linecap="round"/>
<circle cx="882.0" cy="301.2" r="3.5" fill="#fbbf24"/>
<path d="M 124.0 357.5 L 218.8 338.8 L 313.5 345.0 L 408.2 326.2 L 503.0 317.5 L 597.8 322.5 L 692.5 307.5 L 787.2 300.0 L 882.0 292.5 L 882.0 470.0 L 124.0 470.0 Z" fill="#38bdf8" opacity="0.08"/>
<path d="M 124.0 357.5 L 218.8 338.8 L 313.5 345.0 L 408.2 326.2 L 503.0 317.5 L 597.8 322.5 L 692.5 307.5 L 787.2 300.0 L 882.0 292.5" fill="none" stroke="#38bdf8" stroke-width="2.4" stroke-linejoin="round" stroke-linecap="round"/>
<circle cx="882.0" cy="292.5" r="3.5" fill="#38bdf8"/>
<text x="124.0" y="488.0" font-size="10.5" fill="#5b6b86" font-weight="400" text-anchor="middle">06</text>
<text x="218.8" y="488.0" font-size="10.5" fill="#5b6b86" font-weight="400" text-anchor="middle">08</text>
<text x="313.5" y="488.0" font-size="10.5" fill="#5b6b86" font-weight="400" text-anchor="middle">10</text>
<text x="408.2" y="488.0" font-size="10.5" fill="#5b6b86" font-weight="400" text-anchor="middle">12</text>
<text x="503.0" y="488.0" font-size="10.5" fill="#5b6b86" font-weight="400" text-anchor="middle">14</text>
<text x="597.8" y="488.0" font-size="10.5" fill="#5b6b86" font-weight="400" text-anchor="middle">16</text>
<text x="692.5" y="488.0" font-size="10.5" fill="#5b6b86" font-weight="400" text-anchor="middle">18</text>
<text x="787.2" y="488.0" font-size="10.5" fill="#5b6b86" font-weight="400" text-anchor="middle">20</text>
<text x="882.0" y="488.0" font-size="10.5" fill="#5b6b86" font-weight="400" text-anchor="middle">22</text>
<rect x="926.0" y="212.0" width="474.0" height="300.0" rx="14" fill="#0f1b30" stroke="#20304c" stroke-width="1"/>
<text x="944.0" y="239.0" font-size="14" fill="#f1f5f9" font-weight="650" text-anchor="start">OEE Breakdown</text>
<text x="944.0" y="255.0" font-size="11" fill="#7a8aa3" font-weight="400" text-anchor="start">Структура OEE</text>
<circle cx="1163.0" cy="360.0" r="64.0" fill="none" stroke="#2a3c5a" stroke-width="12"/>
<path d="M 1163.0 296.0 A 64 64 0 1 1 1105.1 332.8" fill="none" stroke="#38bdf8" stroke-width="12" stroke-linejoin="round" stroke-linecap="round"/>
<text x="1163.0" y="364.0" font-size="30" fill="#f1f5f9" font-weight="750" text-anchor="middle">82</text>
<text x="1163.0" y="384.0" font-size="10.5" fill="#7a8aa3" font-weight="400" text-anchor="middle">Overall</text>
<circle cx="954.0" cy="446.0" r="4.0" fill="#34d399"/>
<text x="968.0" y="450.0" font-size="12" fill="#c4cee0" font-weight="400" text-anchor="start">Availability</text>
<text x="1378.0" y="450.0" font-size="12.5" fill="#f1f5f9" font-weight="700" text-anchor="end">94%</text>
<circle cx="954.0" cy="476.0" r="4.0" fill="#38bdf8"/>
<text x="968.0" y="480.0" font-size="12" fill="#c4cee0" font-weight="400" text-anchor="start">Performance</text>
<text x="1378.0" y="480.0" font-size="12.5" fill="#f1f5f9" font-weight="700" text-anchor="end">89%</text>
<circle cx="954.0" cy="506.0" r="4.0" fill="#a78bfa"/>
<text x="968.0" y="510.0" font-size="12" fill="#c4cee0" font-weight="400" text-anchor="start">Quality</text>
<text x="1378.0" y="510.0" font-size="12.5" fill="#f1f5f9" font-weight="700" text-anchor="end">98%</text>
<rect x="100.0" y="532.0" width="420.0" height="252.0" rx="14" fill="#0f1b30" stroke="#20304c" stroke-width="1"/>
<text x="118.0" y="559.0" font-size="14" fill="#f1f5f9" font-weight="650" text-anchor="start">Equipment Status</text>
<text x="118.0" y="575.0" font-size="11" fill="#7a8aa3" font-weight="400" text-anchor="start">Состояние оборудования</text>
<rect x="116.0" y="592.0" width="388.0" height="30.0" rx="8" fill="#13233d"/>
<circle cx="130.0" cy="607.0" r="4.0" fill="#34d399"/>
<text x="144.0" y="611.0" font-size="11.5" fill="#c4cee0" font-weight="400" text-anchor="start">Line 1 · Assembly</text>
<rect x="434.0" y="599.0" width="62.0" height="16.0" rx="8" fill="#34d399" opacity="0.16"/>
<text x="465.0" y="611.0" font-size="9.5" fill="#34d399" font-weight="650" text-anchor="middle">Running</text>
<rect x="116.0" y="630.0" width="388.0" height="30.0" rx="8" fill="#13233d"/>
<circle cx="130.0" cy="645.0" r="4.0" fill="#34d399"/>
<text x="144.0" y="649.0" font-size="11.5" fill="#c4cee0" font-weight="400" text-anchor="start">Line 2 · Packaging</text>
<rect x="434.0" y="637.0" width="62.0" height="16.0" rx="8" fill="#34d399" opacity="0.16"/>
<text x="465.0" y="649.0" font-size="9.5" fill="#34d399" font-weight="650" text-anchor="middle">Running</text>
<rect x="116.0" y="668.0" width="388.0" height="30.0" rx="8" fill="#13233d"/>
<circle cx="130.0" cy="683.0" r="4.0" fill="#fbbf24"/>
<text x="144.0" y="687.0" font-size="11.5" fill="#c4cee0" font-weight="400" text-anchor="start">Line 3 · Welding</text>
<rect x="434.0" y="675.0" width="62.0" height="16.0" rx="8" fill="#fbbf24" opacity="0.16"/>
<text x="465.0" y="687.0" font-size="9.5" fill="#fbbf24" font-weight="650" text-anchor="middle">Idle</text>
<rect x="116.0" y="706.0" width="388.0" height="30.0" rx="8" fill="#13233d"/>
<circle cx="130.0" cy="721.0" r="4.0" fill="#fb7185"/>
<text x="144.0" y="725.0" font-size="11.5" fill="#c4cee0" font-weight="400" text-anchor="start">Press A4</text>
<rect x="434.0" y="713.0" width="62.0" height="16.0" rx="8" fill="#fb7185" opacity="0.16"/>
<text x="465.0" y="725.0" font-size="9.5" fill="#fb7185" font-weight="650" text-anchor="middle">Fault</text>
<rect x="116.0" y="744.0" width="388.0" height="30.0" rx="8" fill="#13233d"/>
<circle cx="130.0" cy="759.0" r="4.0" fill="#34d399"/>
<text x="144.0" y="763.0" font-size="11.5" fill="#c4cee0" font-weight="400" text-anchor="start">Conveyor C2</text>
<rect x="434.0" y="751.0" width="62.0" height="16.0" rx="8" fill="#34d399" opacity="0.16"/>
<text x="465.0" y="763.0" font-size="9.5" fill="#34d399" font-weight="650" text-anchor="middle">Running</text>
<rect x="540.0" y="532.0" width="420.0" height="252.0" rx="14" fill="#0f1b30" stroke="#20304c" stroke-width="1"/>
<text x="558.0" y="559.0" font-size="14" fill="#f1f5f9" font-weight="650" text-anchor="start">Safety Monitor</text>
<text x="558.0" y="575.0" font-size="11" fill="#7a8aa3" font-weight="400" text-anchor="start">Мониторинг безопасности</text>
<circle cx="750.0" cy="650.0" r="44.0" fill="none" stroke="#2a3c5a" stroke-width="10"/>
<circle cx="750.0" cy="650.0" r="44.0" fill="none" stroke="#34d399" stroke-width="10"/>
<text x="750.0" y="646.0" font-size="20" fill="#34d399" font-weight="750" text-anchor="middle">SAFE</text>
<text x="750.0" y="666.0" font-size="10.5" fill="#7a8aa3" font-weight="400" text-anchor="middle">all zones clear</text>
<text x="562.0" y="734.0" font-size="11.5" fill="#c4cee0" font-weight="400" text-anchor="start">PPE compliance</text>
<text x="938.0" y="734.0" font-size="12.5" fill="#34d399" font-weight="700" text-anchor="end">99.2%</text>
<text x="562.0" y="766.0" font-size="11.5" fill="#c4cee0" font-weight="400" text-anchor="start">Danger-zone breaches</text>
<text x="938.0" y="766.0" font-size="12.5" fill="#34d399" font-weight="700" text-anchor="end">0</text>
<text x="562.0" y="798.0" font-size="11.5" fill="#c4cee0" font-weight="400" text-anchor="start">Near-miss (24h)</text>
<text x="938.0" y="798.0" font-size="12.5" fill="#fbbf24" font-weight="700" text-anchor="end">1</text>
<rect x="980.0" y="532.0" width="420.0" height="252.0" rx="14" fill="#0f1b30" stroke="#20304c" stroke-width="1"/>
<text x="998.0" y="559.0" font-size="14" fill="#f1f5f9" font-weight="650" text-anchor="start">Zone Throughput</text>
<text x="998.0" y="575.0" font-size="11" fill="#7a8aa3" font-weight="400" text-anchor="start">Пропускная способность зон</text>
<line x1="1002.0" y1="592.0" x2="1378.0" y2="592.0" stroke="#20304c" stroke-width="1" opacity="0.4"/>
<line x1="1002.0" y1="641.3" x2="1378.0" y2="641.3" stroke="#20304c" stroke-width="1" opacity="0.4"/>
<line x1="1002.0" y1="690.7" x2="1378.0" y2="690.7" stroke="#20304c" stroke-width="1" opacity="0.4"/>
<line x1="1002.0" y1="740.0" x2="1378.0" y2="740.0" stroke="#20304c" stroke-width="1" opacity="0.4"/>
<rect x="1014.5" y="656.6" width="37.6" height="83.4" rx="4" fill="#38bdf8" opacity="0.9"/>
<text x="1033.3" y="757.0" font-size="10" fill="#5b6b86" font-weight="400" text-anchor="middle">Z1</text>
<rect x="1077.2" y="621.6" width="37.6" height="118.4" rx="4" fill="#38bdf8" opacity="0.9"/>
<text x="1096.0" y="757.0" font-size="10" fill="#5b6b86" font-weight="400" text-anchor="middle">Z2</text>
<rect x="1139.9" y="640.4" width="37.6" height="99.6" rx="4" fill="#38bdf8" opacity="0.9"/>
<text x="1158.7" y="757.0" font-size="10" fill="#5b6b86" font-weight="400" text-anchor="middle">Z3</text>
<rect x="1202.5" y="612.2" width="37.6" height="127.8" rx="4" fill="#34d399" opacity="0.9"/>
<text x="1221.3" y="757.0" font-size="10" fill="#5b6b86" font-weight="400" text-anchor="middle">Z4</text>
<rect x="1265.2" y="662.0" width="37.6" height="78.0" rx="4" fill="#fbbf24" opacity="0.9"/>
<text x="1284.0" y="757.0" font-size="10" fill="#5b6b86" font-weight="400" text-anchor="middle">Z5</text>
<rect x="1327.9" y="632.4" width="37.6" height="107.6" rx="4" fill="#38bdf8" opacity="0.9"/>
<text x="1346.7" y="757.0" font-size="10" fill="#5b6b86" font-weight="400" text-anchor="middle">Z6</text>
<line x1="1002.0" y1="618.9" x2="1378.0" y2="618.9" stroke="#fbbf24" stroke-width="1.5" stroke-dasharray="5 4"/>
<text x="1002.0" y="770.0" font-size="10" fill="#fbbf24" font-weight="400" text-anchor="start">— target 90 u/h</text>
<rect x="0.0" y="900.0" width="1440.0" height="92.0" rx="0" fill="#070d18"/>
<line x1="0.0" y1="900.0" x2="1440.0" y2="900.0" stroke="#20304c" stroke-width="1"/>
<rect x="30.0" y="924.0" width="10.0" height="44.0" rx="3" fill="#38bdf8"/>
<text x="52.0" y="938.0" font-size="16" fill="#f1f5f9" font-weight="750" text-anchor="start">Head Dashboard</text>
<text x="52.0" y="938.0" font-size="16" fill="#f1f5f9" font-weight="750" text-anchor="start">Head Dashboard</text>
<text x="192.0" y="938.0" font-size="12" fill="#7a8aa3" font-weight="400" text-anchor="start">Главная панель</text>
<text x="52.0" y="960.0" font-size="11.5" fill="#c4cee0" font-weight="400" text-anchor="start">Executive command view — factory-wide KPIs (OEE, output, safety, equipment) on one high-level screen for management.</text>
<rect x="1180.0" y="926.0" width="230.0" height="40.0" rx="9" fill="#13233d" stroke="#20304c" stroke-width="1"/>
<text x="1196.0" y="942.0" font-size="9.5" fill="#5b6b86" font-weight="600" text-anchor="start" letter-spacing="0.4">Realizes</text>
<text x="1196.0" y="957.0" font-size="11" fill="#38bdf8" font-weight="650" text-anchor="start">Presentation · L1</text>
</svg>