<svg xmlns="http://www.w3.org/2000/svg" width="1440" height="992" viewBox="0 0 1440 992" font-family="Inter, sans-serif">
<rect x="0.0" y="0.0" width="1440.0" height="992.0" rx="0" fill="#0a1120"/>
<rect x="0.0" y="0.0" width="76.0" height="900.0" rx="0" fill="#0c1526"/>
<line x1="76.0" y1="0.0" x2="76.0" y2="900.0" stroke="#20304c" stroke-width="1"/>
<rect x="22.0" y="26.0" width="32.0" height="32.0" rx="9" fill="#0b1624"/>
<circle cx="38.0" cy="42.0" r="9.0" fill="none" stroke="#38bdf8" stroke-width="2.4"/>
<circle cx="38.0" cy="42.0" r="3.4" fill="#38bdf8"/>
<path d="M 29.0 116 L 38.0 104 L 47.0 116 M 32.0 113 L 32.0 119 L 44.0 119 L 44.0 113" fill="none" stroke="#5b6b86" stroke-width="2" stroke-linejoin="round" stroke-linecap="round"/>
<rect x="31.0" y="161.0" width="8.0" height="8.0" rx="2" fill="none" stroke="#5b6b86" stroke-width="2"/>
<rect x="31.0" y="171.0" width="8.0" height="8.0" rx="2" fill="none" stroke="#5b6b86" stroke-width="2"/>
<rect x="41.0" y="161.0" width="8.0" height="8.0" rx="2" fill="none" stroke="#5b6b86" stroke-width="2"/>
<rect x="41.0" y="171.0" width="8.0" height="8.0" rx="2" fill="none" stroke="#5b6b86" stroke-width="2"/>
<rect x="10.0" y="210.0" width="56.0" height="44.0" rx="11" fill="#38bdf8" opacity="0.16"/>
<rect x="0.0" y="210.0" width="3.0" height="44.0" rx="2" fill="#38bdf8"/>
<rect x="28.0" y="220.0" width="13.0" height="12.0" rx="2" fill="none" stroke="#38bdf8" stroke-width="2"/>
<path d="M 42.0 224 L 48.0 220 L 48.0 232 L 42.0 228 Z" fill="none" stroke="#38bdf8" stroke-width="2" stroke-linejoin="round" stroke-linecap="round"/>
<path d="M 29.0 292 L 29.0 276 M 29.0 292 L 47.0 292" fill="none" stroke="#5b6b86" stroke-width="2" stroke-linejoin="round" stroke-linecap="round"/>
<path d="M 33.0 287 L 37.0 281 L 41.0 284 L 46.0 277" fill="none" stroke="#5b6b86" stroke-width="2" stroke-linejoin="round" stroke-linecap="round"/>
<path d="M 31.0 346 Q 31.0 334 38.0 334 Q 45.0 334 45.0 346 Z" fill="none" stroke="#5b6b86" stroke-width="2" stroke-linejoin="round" stroke-linecap="round"/>
<line x1="36.0" y1="350.0" x2="40.0" y2="350.0" stroke="#5b6b86" stroke-width="2"/>
<circle cx="38.0" cy="400.0" r="6.0" fill="none" stroke="#5b6b86" stroke-width="2"/>
<circle cx="38.0" cy="400.0" r="2.0" fill="#5b6b86"/>
<rect x="76.0" y="0.0" width="1364.0" height="64.0" rx="0" fill="#122341"/>
<line x1="76.0" y1="64.0" x2="1440.0" y2="64.0" stroke="#20304c" stroke-width="1"/>
<text x="102.0" y="30.0" font-size="17" fill="#f1f5f9" font-weight="700" text-anchor="start">Operator Panel — Line 3</text>
<text x="102.0" y="48.0" font-size="11.5" fill="#7a8aa3" font-weight="400" text-anchor="start">Панель оператора · Линия 3</text>
<rect x="1080.0" y="17.0" width="190.0" height="30.0" rx="8" fill="#13233d" stroke="#20304c" stroke-width="1"/>
<circle cx="1098.0" cy="32.0" r="5.0" fill="none" stroke="#5b6b86" stroke-width="1.6"/>
<line x1="1102.0" y1="36.0" x2="1107.0" y2="41.0" stroke="#5b6b86" stroke-width="1.6"/>
<text x="1114.0" y="36.0" font-size="11.5" fill="#5b6b86" font-weight="400" text-anchor="start">Search…</text>
<circle cx="1290.0" cy="32.0" r="4.0" fill="#34d399"/>
<text x="1300.0" y="36.0" font-size="12" fill="#c4cee0" font-weight="600" text-anchor="start" font-family="ui-monospace, monospace">14:32:07</text>
<circle cx="1400.0" cy="32.0" r="15.0" fill="#a78bfa" opacity="0.35"/>
<text x="1400.0" y="37.0" font-size="11" fill="#f1f5f9" font-weight="700" text-anchor="middle">OJ</text>
<rect x="327.0" y="16.0" width="50.0" height="20.0" rx="10" fill="#34d399" opacity="0.16"/>
<circle cx="339.0" cy="26.0" r="3.0" fill="#34d399"/>
<text x="347.0" y="30.0" font-size="10.5" fill="#34d399" font-weight="650" text-anchor="start">LIVE</text>
<rect x="100.0" y="88.0" width="462.0" height="378.0" rx="10" fill="#0a1420" stroke="#20304c" stroke-width="1"/>
<rect x="101.0" y="89.0" width="460.0" height="376.0" rx="9" fill="#0e1c2e" opacity="0.7"/>
<line x1="108.0" y1="106.0" x2="554.0" y2="106.0" stroke="#1b2c44" stroke-width="1" opacity="0.5"/>
<line x1="108.0" y1="280.0" x2="554.0" y2="280.0" stroke="#1b2c44" stroke-width="1" opacity="0.5"/>
<line x1="108.0" y1="454.0" x2="554.0" y2="454.0" stroke="#1b2c44" stroke-width="1" opacity="0.5"/>
<rect x="170.0" y="148.0" width="54.0" height="120.0" rx="3" fill="none" stroke="#38bdf8" stroke-width="2"/>
<rect x="170.0" y="134.0" width="76.0" height="14.0" rx="2" fill="#38bdf8"/>
<text x="175.0" y="145.0" font-size="9" fill="#06121f" font-weight="700" text-anchor="start">person 0.94</text>
<rect x="280.0" y="178.0" width="80.0" height="70.0" rx="3" fill="none" stroke="#fbbf24" stroke-width="2"/>
<rect x="280.0" y="164.0" width="88.0" height="14.0" rx="2" fill="#fbbf24"/>
<text x="285.0" y="175.0" font-size="9" fill="#06121f" font-weight="700" text-anchor="start">forklift 0.88</text>
<rect x="100.0" y="88.0" width="462.0" height="22.0" rx="10" fill="#0a1420" opacity="0.55"/>
<circle cx="114.0" cy="99.0" r="3.0" fill="#34d399"/>
<text x="124.0" y="103.0" font-size="10.5" fill="#e6edf6" font-weight="600" text-anchor="start">Zone 3 · Welding Bay</text>
<text x="552.0" y="103.0" font-size="9.5" fill="#9fb0c8" font-weight="400" text-anchor="end" font-family="ui-monospace, monospace">CAM-31</text>
<rect x="578.0" y="88.0" width="462.0" height="378.0" rx="10" fill="#0a1420" stroke="#20304c" stroke-width="1"/>
<rect x="579.0" y="89.0" width="460.0" height="376.0" rx="9" fill="#0e1c2e" opacity="0.7"/>
<line x1="586.0" y1="106.0" x2="1032.0" y2="106.0" stroke="#1b2c44" stroke-width="1" opacity="0.5"/>
<line x1="586.0" y1="280.0" x2="1032.0" y2="280.0" stroke="#1b2c44" stroke-width="1" opacity="0.5"/>
<line x1="586.0" y1="454.0" x2="1032.0" y2="454.0" stroke="#1b2c44" stroke-width="1" opacity="0.5"/>
<rect x="698.0" y="138.0" width="60.0" height="130.0" rx="3" fill="none" stroke="#fb7185" stroke-width="2"/>
<rect x="698.0" y="124.0" width="64.0" height="14.0" rx="2" fill="#fb7185"/>
<text x="703.0" y="135.0" font-size="9" fill="#06121f" font-weight="700" text-anchor="start">NO HELMET</text>
<rect x="618.0" y="208.0" width="70.0" height="60.0" rx="3" fill="none" stroke="#38bdf8" stroke-width="2"/>
<rect x="618.0" y="194.0" width="76.0" height="14.0" rx="2" fill="#38bdf8"/>
<text x="623.0" y="205.0" font-size="9" fill="#06121f" font-weight="700" text-anchor="start">person 0.91</text>
<rect x="578.0" y="88.0" width="462.0" height="22.0" rx="10" fill="#0a1420" opacity="0.55"/>
<circle cx="592.0" cy="99.0" r="3.0" fill="#fb7185"/>
<text x="602.0" y="103.0" font-size="10.5" fill="#e6edf6" font-weight="600" text-anchor="start">Zone 3 · Assembly</text>
<text x="1030.0" y="103.0" font-size="9.5" fill="#9fb0c8" font-weight="400" text-anchor="end" font-family="ui-monospace, monospace">CAM-32</text>
<rect x="578.0" y="440.0" width="462.0" height="26.0" rx="0" fill="#fb7185" opacity="0.92"/>
<text x="590.0" y="457.0" font-size="11" fill="#3a0710" font-weight="750" text-anchor="start">⚠ Helmet Missing — Worker #A-1188</text>
<rect x="100.0" y="482.0" width="462.0" height="378.0" rx="10" fill="#0a1420" stroke="#20304c" stroke-width="1"/>
<rect x="101.0" y="483.0" width="460.0" height="376.0" rx="9" fill="#0e1c2e" opacity="0.7"/>
<line x1="108.0" y1="500.0" x2="554.0" y2="500.0" stroke="#1b2c44" stroke-width="1" opacity="0.5"/>
<line x1="108.0" y1="674.0" x2="554.0" y2="674.0" stroke="#1b2c44" stroke-width="1" opacity="0.5"/>
<line x1="108.0" y1="848.0" x2="554.0" y2="848.0" stroke="#1b2c44" stroke-width="1" opacity="0.5"/>
<rect x="190.0" y="552.0" width="100.0" height="80.0" rx="3" fill="none" stroke="#34d399" stroke-width="2"/>
<rect x="190.0" y="538.0" width="76.0" height="14.0" rx="2" fill="#34d399"/>
<text x="195.0" y="549.0" font-size="9" fill="#06121f" font-weight="700" text-anchor="start">pallet 0.96</text>
<rect x="310.0" y="582.0" width="60.0" height="70.0" rx="3" fill="none" stroke="#38bdf8" stroke-width="2"/>
<rect x="310.0" y="568.0" width="52.0" height="14.0" rx="2" fill="#38bdf8"/>
<text x="315.0" y="579.0" font-size="9" fill="#06121f" font-weight="700" text-anchor="start">box 0.9</text>
<rect x="100.0" y="482.0" width="462.0" height="22.0" rx="10" fill="#0a1420" opacity="0.55"/>
<circle cx="114.0" cy="493.0" r="3.0" fill="#34d399"/>
<text x="124.0" y="497.0" font-size="10.5" fill="#e6edf6" font-weight="600" text-anchor="start">Zone 3 · Staging</text>
<text x="552.0" y="497.0" font-size="9.5" fill="#9fb0c8" font-weight="400" text-anchor="end" font-family="ui-monospace, monospace">CAM-33</text>
<rect x="578.0" y="482.0" width="462.0" height="378.0" rx="10" fill="#0a1420" stroke="#20304c" stroke-width="1"/>
<rect x="579.0" y="483.0" width="460.0" height="376.0" rx="9" fill="#0e1c2e" opacity="0.7"/>
<line x1="586.0" y1="500.0" x2="1032.0" y2="500.0" stroke="#1b2c44" stroke-width="1" opacity="0.5"/>
<line x1="586.0" y1="674.0" x2="1032.0" y2="674.0" stroke="#1b2c44" stroke-width="1" opacity="0.5"/>
<line x1="586.0" y1="848.0" x2="1032.0" y2="848.0" stroke="#1b2c44" stroke-width="1" opacity="0.5"/>
<rect x="728.0" y="542.0" width="70.0" height="120.0" rx="3" fill="none" stroke="#a78bfa" stroke-width="2"/>
<rect x="728.0" y="528.0" width="76.0" height="14.0" rx="2" fill="#a78bfa"/>
<text x="733.0" y="539.0" font-size="9" fill="#06121f" font-weight="700" text-anchor="start">person 0.87</text>
<rect x="578.0" y="482.0" width="462.0" height="22.0" rx="10" fill="#0a1420" opacity="0.55"/>
<circle cx="592.0" cy="493.0" r="3.0" fill="#34d399"/>
<text x="602.0" y="497.0" font-size="10.5" fill="#e6edf6" font-weight="600" text-anchor="start">Zone 3 · Exit</text>
<text x="1030.0" y="497.0" font-size="9.5" fill="#9fb0c8" font-weight="400" text-anchor="end" font-family="ui-monospace, monospace">CAM-34</text>
<rect x="1060.0" y="88.0" width="340.0" height="632.0" rx="14" fill="#0f1b30" stroke="#20304c" stroke-width="1"/>
<text x="1078.0" y="115.0" font-size="14" fill="#f1f5f9" font-weight="650" text-anchor="start">Live Event Feed</text>
<text x="1078.0" y="131.0" font-size="11" fill="#7a8aa3" font-weight="400" text-anchor="start">Лента событий</text>
<circle cx="1360.0" cy="115.0" r="4.0" fill="#fb7185"/>
<text x="1370.0" y="119.0" font-size="11" fill="#fb7185" font-weight="700" text-anchor="start">3</text>
<rect x="1076.0" y="148.0" width="308.0" height="44.0" rx="9" fill="#13233d" stroke="#20304c" stroke-width="1"/>
<rect x="1076.0" y="158.0" width="3.0" height="24.0" rx="2" fill="#fb7185"/>
<text x="1092.0" y="168.0" font-size="12.5" fill="#f1f5f9" font-weight="600" text-anchor="start">Helmet Missing · CAM-32</text>
<text x="1092.0" y="183.0" font-size="10.5" fill="#7a8aa3" font-weight="400" text-anchor="start">Отсутствует каска</text>
<text x="1370.0" y="168.0" font-size="10.5" fill="#5b6b86" font-weight="400" text-anchor="end" font-family="ui-monospace, monospace">14:32:01</text>
<circle cx="1364.0" cy="181.0" r="3.0" fill="#fb7185"/>
<rect x="1076.0" y="200.0" width="308.0" height="44.0" rx="9" fill="#13233d" stroke="#20304c" stroke-width="1"/>
<rect x="1076.0" y="210.0" width="3.0" height="24.0" rx="2" fill="#fbbf24"/>
<text x="1092.0" y="220.0" font-size="12.5" fill="#f1f5f9" font-weight="600" text-anchor="start">Forklift too close · CAM-31</text>
<text x="1092.0" y="235.0" font-size="10.5" fill="#7a8aa3" font-weight="400" text-anchor="start">Погрузчик близко</text>
<text x="1370.0" y="220.0" font-size="10.5" fill="#5b6b86" font-weight="400" text-anchor="end" font-family="ui-monospace, monospace">14:31:48</text>
<circle cx="1364.0" cy="233.0" r="3.0" fill="#fbbf24"/>
<rect x="1076.0" y="252.0" width="308.0" height="44.0" rx="9" fill="#13233d" stroke="#20304c" stroke-width="1"/>
<rect x="1076.0" y="262.0" width="3.0" height="24.0" rx="2" fill="#38bdf8"/>
<text x="1092.0" y="272.0" font-size="12.5" fill="#f1f5f9" font-weight="600" text-anchor="start">Person entered Zone 3</text>
<text x="1092.0" y="287.0" font-size="10.5" fill="#7a8aa3" font-weight="400" text-anchor="start">Человек вошёл</text>
<text x="1370.0" y="272.0" font-size="10.5" fill="#5b6b86" font-weight="400" text-anchor="end" font-family="ui-monospace, monospace">14:31:20</text>
<circle cx="1364.0" cy="285.0" r="3.0" fill="#38bdf8"/>
<rect x="1076.0" y="304.0" width="308.0" height="44.0" rx="9" fill="#13233d" stroke="#20304c" stroke-width="1"/>
<rect x="1076.0" y="314.0" width="3.0" height="24.0" rx="2" fill="#34d399"/>
<text x="1092.0" y="324.0" font-size="12.5" fill="#f1f5f9" font-weight="600" text-anchor="start">Pallet counted · +1</text>
<text x="1092.0" y="339.0" font-size="10.5" fill="#7a8aa3" font-weight="400" text-anchor="start">Паллета учтена</text>
<text x="1370.0" y="324.0" font-size="10.5" fill="#5b6b86" font-weight="400" text-anchor="end" font-family="ui-monospace, monospace">14:30:55</text>
<circle cx="1364.0" cy="337.0" r="3.0" fill="#34d399"/>
<rect x="1076.0" y="356.0" width="308.0" height="44.0" rx="9" fill="#13233d" stroke="#20304c" stroke-width="1"/>
<rect x="1076.0" y="366.0" width="3.0" height="24.0" rx="2" fill="#fbbf24"/>
<text x="1092.0" y="376.0" font-size="12.5" fill="#f1f5f9" font-weight="600" text-anchor="start">Idle detected · Station 4</text>
<text x="1092.0" y="391.0" font-size="10.5" fill="#7a8aa3" font-weight="400" text-anchor="start">Простой</text>
<text x="1370.0" y="376.0" font-size="10.5" fill="#5b6b86" font-weight="400" text-anchor="end" font-family="ui-monospace, monospace">14:29:12</text>
<circle cx="1364.0" cy="389.0" r="3.0" fill="#fbbf24"/>
<rect x="1076.0" y="408.0" width="308.0" height="44.0" rx="9" fill="#13233d" stroke="#20304c" stroke-width="1"/>
<rect x="1076.0" y="418.0" width="3.0" height="24.0" rx="2" fill="#38bdf8"/>
<text x="1092.0" y="428.0" font-size="12.5" fill="#f1f5f9" font-weight="600" text-anchor="start">Shift handover logged</text>
<text x="1092.0" y="443.0" font-size="10.5" fill="#7a8aa3" font-weight="400" text-anchor="start">Пересменка</text>
<text x="1370.0" y="428.0" font-size="10.5" fill="#5b6b86" font-weight="400" text-anchor="end" font-family="ui-monospace, monospace">14:28:00</text>
<circle cx="1364.0" cy="441.0" r="3.0" fill="#38bdf8"/>
<rect x="1076.0" y="460.0" width="308.0" height="44.0" rx="9" fill="#13233d" stroke="#20304c" stroke-width="1"/>
<rect x="1076.0" y="470.0" width="3.0" height="24.0" rx="2" fill="#34d399"/>
<text x="1092.0" y="480.0" font-size="12.5" fill="#f1f5f9" font-weight="600" text-anchor="start">PPE check passed</text>
<text x="1092.0" y="495.0" font-size="10.5" fill="#7a8aa3" font-weight="400" text-anchor="start">Проверка СИЗ</text>
<text x="1370.0" y="480.0" font-size="10.5" fill="#5b6b86" font-weight="400" text-anchor="end" font-family="ui-monospace, monospace">14:27:41</text>
<circle cx="1364.0" cy="493.0" r="3.0" fill="#34d399"/>
<rect x="1060.0" y="736.0" width="340.0" height="124.0" rx="14" fill="#0f1b30" stroke="#20304c" stroke-width="1"/>
<text x="1078.0" y="762.0" font-size="13" fill="#f1f5f9" font-weight="650" text-anchor="start">Quick Actions</text>
<text x="1078.0" y="778.0" font-size="10.5" fill="#7a8aa3" font-weight="400" text-anchor="start">Быстрые действия</text>
<rect x="1078.0" y="792.0" width="146.0" height="28.0" rx="8" fill="#34d399" stroke="#34d399" stroke-width="1" opacity="0.16"/>
<text x="1151.0" y="810.0" font-size="11.5" fill="#34d399" font-weight="650" text-anchor="middle">Acknowledge</text>
<rect x="1236.0" y="792.0" width="146.0" height="28.0" rx="8" fill="#fbbf24" stroke="#fbbf24" stroke-width="1" opacity="0.16"/>
<text x="1309.0" y="810.0" font-size="11.5" fill="#fbbf24" font-weight="650" text-anchor="middle">Escalate</text>
<rect x="1078.0" y="826.0" width="146.0" height="28.0" rx="8" fill="#fb7185" stroke="#fb7185" stroke-width="1" opacity="0.16"/>
<text x="1151.0" y="844.0" font-size="11.5" fill="#fb7185" font-weight="650" text-anchor="middle">Stop Line</text>
<rect x="1236.0" y="826.0" width="146.0" height="28.0" rx="8" fill="#38bdf8" stroke="#38bdf8" stroke-width="1" opacity="0.16"/>
<text x="1309.0" y="844.0" font-size="11.5" fill="#38bdf8" font-weight="650" text-anchor="middle">Snapshot</text>
<rect x="0.0" y="900.0" width="1440.0" height="92.0" rx="0" fill="#070d18"/>
<line x1="0.0" y1="900.0" x2="1440.0" y2="900.0" stroke="#20304c" stroke-width="1"/>
<rect x="30.0" y="924.0" width="10.0" height="44.0" rx="3" fill="#fbbf24"/>
<text x="52.0" y="938.0" font-size="16" fill="#f1f5f9" font-weight="750" text-anchor="start">Operator Panel</text>
<text x="52.0" y="938.0" font-size="16" fill="#f1f5f9" font-weight="750" text-anchor="start">Operator Panel</text>
<text x="192.0" y="938.0" font-size="12" fill="#7a8aa3" font-weight="400" text-anchor="start">Панель оператора</text>
<text x="52.0" y="960.0" font-size="11.5" fill="#c4cee0" font-weight="400" text-anchor="start">Real-time control surface for line operators — live camera feeds with detections, immediate violation notices and quick actions.</text>
<rect x="1180.0" y="926.0" width="230.0" height="40.0" rx="9" fill="#13233d" stroke="#20304c" stroke-width="1"/>
<text x="1196.0" y="942.0" font-size="9.5" fill="#5b6b86" font-weight="600" text-anchor="start" letter-spacing="0.4">Realizes</text>
<text x="1196.0" y="957.0" font-size="11" fill="#fbbf24" font-weight="650" text-anchor="start">Presentation · L1</text>
</svg>