<svg xmlns="http://www.w3.org/2000/svg" width="1440" height="992" viewBox="0 0 1440 992" font-family="Inter, sans-serif">
<rect x="0.0" y="0.0" width="1440.0" height="992.0" rx="0" fill="#0a1120"/>
<rect x="0.0" y="0.0" width="76.0" height="900.0" rx="0" fill="#0c1526"/>
<line x1="76.0" y1="0.0" x2="76.0" y2="900.0" stroke="#20304c" stroke-width="1"/>
<rect x="22.0" y="26.0" width="32.0" height="32.0" rx="9" fill="#0b1624"/>
<circle cx="38.0" cy="42.0" r="9.0" fill="none" stroke="#38bdf8" stroke-width="2.4"/>
<circle cx="38.0" cy="42.0" r="3.4" fill="#38bdf8"/>
<path d="M 29.0 116 L 38.0 104 L 47.0 116 M 32.0 113 L 32.0 119 L 44.0 119 L 44.0 113" fill="none" stroke="#5b6b86" stroke-width="2" stroke-linejoin="round" stroke-linecap="round"/>
<rect x="10.0" y="152.0" width="56.0" height="44.0" rx="11" fill="#38bdf8" opacity="0.16"/>
<rect x="0.0" y="152.0" width="3.0" height="44.0" rx="2" fill="#38bdf8"/>
<rect x="31.0" y="161.0" width="8.0" height="8.0" rx="2" fill="none" stroke="#38bdf8" stroke-width="2"/>
<rect x="31.0" y="171.0" width="8.0" height="8.0" rx="2" fill="none" stroke="#38bdf8" stroke-width="2"/>
<rect x="41.0" y="161.0" width="8.0" height="8.0" rx="2" fill="none" stroke="#38bdf8" stroke-width="2"/>
<rect x="41.0" y="171.0" width="8.0" height="8.0" rx="2" fill="none" stroke="#38bdf8" stroke-width="2"/>
<rect x="28.0" y="220.0" width="13.0" height="12.0" rx="2" fill="none" stroke="#5b6b86" stroke-width="2"/>
<path d="M 42.0 224 L 48.0 220 L 48.0 232 L 42.0 228 Z" fill="none" stroke="#5b6b86" stroke-width="2" stroke-linejoin="round" stroke-linecap="round"/>
<path d="M 29.0 292 L 29.0 276 M 29.0 292 L 47.0 292" fill="none" stroke="#5b6b86" stroke-width="2" stroke-linejoin="round" stroke-linecap="round"/>
<path d="M 33.0 287 L 37.0 281 L 41.0 284 L 46.0 277" fill="none" stroke="#5b6b86" stroke-width="2" stroke-linejoin="round" stroke-linecap="round"/>
<path d="M 31.0 346 Q 31.0 334 38.0 334 Q 45.0 334 45.0 346 Z" fill="none" stroke="#5b6b86" stroke-width="2" stroke-linejoin="round" stroke-linecap="round"/>
<line x1="36.0" y1="350.0" x2="40.0" y2="350.0" stroke="#5b6b86" stroke-width="2"/>
<circle cx="38.0" cy="400.0" r="6.0" fill="none" stroke="#5b6b86" stroke-width="2"/>
<circle cx="38.0" cy="400.0" r="2.0" fill="#5b6b86"/>
<rect x="76.0" y="0.0" width="1364.0" height="64.0" rx="0" fill="#122341"/>
<line x1="76.0" y1="64.0" x2="1440.0" y2="64.0" stroke="#20304c" stroke-width="1"/>
<text x="102.0" y="30.0" font-size="17" fill="#f1f5f9" font-weight="700" text-anchor="start">My Workspace</text>
<text x="102.0" y="48.0" font-size="11.5" fill="#7a8aa3" font-weight="400" text-anchor="start">Моё рабочее пространство</text>
<rect x="1080.0" y="17.0" width="190.0" height="30.0" rx="8" fill="#13233d" stroke="#20304c" stroke-width="1"/>
<circle cx="1098.0" cy="32.0" r="5.0" fill="none" stroke="#5b6b86" stroke-width="1.6"/>
<line x1="1102.0" y1="36.0" x2="1107.0" y2="41.0" stroke="#5b6b86" stroke-width="1.6"/>
<text x="1114.0" y="36.0" font-size="11.5" fill="#5b6b86" font-weight="400" text-anchor="start">Search…</text>
<circle cx="1290.0" cy="32.0" r="4.0" fill="#34d399"/>
<text x="1300.0" y="36.0" font-size="12" fill="#c4cee0" font-weight="600" text-anchor="start" font-family="ui-monospace, monospace">14:32:07</text>
<circle cx="1400.0" cy="32.0" r="15.0" fill="#a78bfa" opacity="0.35"/>
<text x="1400.0" y="37.0" font-size="11" fill="#f1f5f9" font-weight="700" text-anchor="middle">OJ</text>
<rect x="228.0" y="16.0" width="141.0" height="20.0" rx="10" fill="#34d399" opacity="0.16"/>
<circle cx="240.0" cy="26.0" r="3.0" fill="#34d399"/>
<text x="248.0" y="30.0" font-size="10.5" fill="#34d399" font-weight="650" text-anchor="start">Line 3 · Operator</text>
<rect x="100.0" y="88.0" width="1300.0" height="86.0" rx="14" fill="#0f1b30" stroke="#20304c" stroke-width="1"/>
<text x="124.0" y="122.0" font-size="18" fill="#f1f5f9" font-weight="700" text-anchor="start">Good afternoon, Odiljon</text>
<text x="124.0" y="146.0" font-size="12" fill="#7a8aa3" font-weight="400" text-anchor="start">Your area · Zone 3 (Welding &amp; Assembly) · Shift B</text>
<rect x="748.0" y="104.0" width="150.0" height="54.0" rx="10" fill="#13233d" stroke="#20304c" stroke-width="1"/>
<rect x="748.0" y="104.0" width="3.0" height="54.0" rx="2" fill="#34d399"/>
<text x="762.0" y="124.0" font-size="9.5" fill="#7a8aa3" font-weight="600" text-anchor="start" letter-spacing="0.3">MY LINE OEE</text>
<text x="762.0" y="148.0" font-size="18" fill="#f1f5f9" font-weight="750" text-anchor="start">86%</text>
<rect x="910.0" y="104.0" width="150.0" height="54.0" rx="10" fill="#13233d" stroke="#20304c" stroke-width="1"/>
<rect x="910.0" y="104.0" width="3.0" height="54.0" rx="2" fill="#fbbf24"/>
<text x="924.0" y="124.0" font-size="9.5" fill="#7a8aa3" font-weight="600" text-anchor="start" letter-spacing="0.3">MY ALERTS</text>
<text x="924.0" y="148.0" font-size="18" fill="#f1f5f9" font-weight="750" text-anchor="start">1</text>
<rect x="1072.0" y="104.0" width="150.0" height="54.0" rx="10" fill="#13233d" stroke="#20304c" stroke-width="1"/>
<rect x="1072.0" y="104.0" width="3.0" height="54.0" rx="2" fill="#38bdf8"/>
<text x="1086.0" y="124.0" font-size="9.5" fill="#7a8aa3" font-weight="600" text-anchor="start" letter-spacing="0.3">TASKS DUE</text>
<text x="1086.0" y="148.0" font-size="18" fill="#f1f5f9" font-weight="750" text-anchor="start">3</text>
<rect x="1234.0" y="104.0" width="150.0" height="54.0" rx="10" fill="#13233d" stroke="#20304c" stroke-width="1"/>
<rect x="1234.0" y="104.0" width="3.0" height="54.0" rx="2" fill="#34d399"/>
<text x="1248.0" y="124.0" font-size="9.5" fill="#7a8aa3" font-weight="600" text-anchor="start" letter-spacing="0.3">ATTENDANCE</text>
<text x="1248.0" y="148.0" font-size="18" fill="#f1f5f9" font-weight="750" text-anchor="start">On time</text>
<rect x="100.0" y="194.0" width="650.0" height="320.0" rx="14" fill="#0f1b30" stroke="#20304c" stroke-width="1"/>
<text x="118.0" y="221.0" font-size="14" fill="#f1f5f9" font-weight="650" text-anchor="start">My Cameras</text>
<text x="118.0" y="237.0" font-size="11" fill="#7a8aa3" font-weight="400" text-anchor="start">Мои камеры</text>
<rect x="116.0" y="252.0" width="301.0" height="232.0" rx="10" fill="#0a1420" stroke="#20304c" stroke-width="1"/>
<rect x="117.0" y="253.0" width="299.0" height="230.0" rx="9" fill="#0e1c2e" opacity="0.7"/>
<line x1="124.0" y1="270.0" x2="409.0" y2="270.0" stroke="#1b2c44" stroke-width="1" opacity="0.5"/>
<line x1="124.0" y1="371.0" x2="409.0" y2="371.0" stroke="#1b2c44" stroke-width="1" opacity="0.5"/>
<line x1="124.0" y1="472.0" x2="409.0" y2="472.0" stroke="#1b2c44" stroke-width="1" opacity="0.5"/>
<rect x="176.0" y="302.0" width="50.0" height="110.0" rx="3" fill="none" stroke="#38bdf8" stroke-width="2"/>
<rect x="176.0" y="288.0" width="76.0" height="14.0" rx="2" fill="#38bdf8"/>
<text x="181.0" y="299.0" font-size="9" fill="#06121f" font-weight="700" text-anchor="start">person 0.93</text>
<rect x="116.0" y="252.0" width="301.0" height="22.0" rx="10" fill="#0a1420" opacity="0.55"/>
<circle cx="130.0" cy="263.0" r="3.0" fill="#34d399"/>
<text x="140.0" y="267.0" font-size="10.5" fill="#e6edf6" font-weight="600" text-anchor="start">Zone 3 · Welding</text>
<text x="407.0" y="267.0" font-size="9.5" fill="#9fb0c8" font-weight="400" text-anchor="end" font-family="ui-monospace, monospace">CAM-31</text>
<rect x="433.0" y="252.0" width="301.0" height="232.0" rx="10" fill="#0a1420" stroke="#20304c" stroke-width="1"/>
<rect x="434.0" y="253.0" width="299.0" height="230.0" rx="9" fill="#0e1c2e" opacity="0.7"/>
<line x1="441.0" y1="270.0" x2="726.0" y2="270.0" stroke="#1b2c44" stroke-width="1" opacity="0.5"/>
<line x1="441.0" y1="371.0" x2="726.0" y2="371.0" stroke="#1b2c44" stroke-width="1" opacity="0.5"/>
<line x1="441.0" y1="472.0" x2="726.0" y2="472.0" stroke="#1b2c44" stroke-width="1" opacity="0.5"/>
<rect x="523.0" y="322.0" width="80.0" height="70.0" rx="3" fill="none" stroke="#34d399" stroke-width="2"/>
<rect x="523.0" y="308.0" width="76.0" height="14.0" rx="2" fill="#34d399"/>
<text x="528.0" y="319.0" font-size="9" fill="#06121f" font-weight="700" text-anchor="start">pallet 0.95</text>
<rect x="433.0" y="252.0" width="301.0" height="22.0" rx="10" fill="#0a1420" opacity="0.55"/>
<circle cx="447.0" cy="263.0" r="3.0" fill="#34d399"/>
<text x="457.0" y="267.0" font-size="10.5" fill="#e6edf6" font-weight="600" text-anchor="start">Zone 3 · Assembly</text>
<text x="724.0" y="267.0" font-size="9.5" fill="#9fb0c8" font-weight="400" text-anchor="end" font-family="ui-monospace, monospace">CAM-32</text>
<rect x="770.0" y="194.0" width="630.0" height="150.0" rx="14" fill="#0f1b30" stroke="#20304c" stroke-width="1"/>
<text x="788.0" y="221.0" font-size="14" fill="#f1f5f9" font-weight="650" text-anchor="start">My Line — Status</text>
<text x="788.0" y="237.0" font-size="11" fill="#7a8aa3" font-weight="400" text-anchor="start">Моя линия · статус</text>
<circle cx="810.0" cy="286.0" r="14.0" fill="#34d399" opacity="0.25"/>
<circle cx="810.0" cy="286.0" r="6.0" fill="#34d399"/>
<text x="836.0" y="282.0" font-size="17" fill="#f1f5f9" font-weight="700" text-anchor="start">Running</text>
<text x="836.0" y="300.0" font-size="11" fill="#7a8aa3" font-weight="400" text-anchor="start">cycle 218 · 42s avg</text>
<text x="792.0" y="338.0" font-size="11" fill="#7a8aa3" font-weight="400" text-anchor="start">Shift target</text>
<text x="1378.0" y="338.0" font-size="11.5" fill="#f1f5f9" font-weight="650" text-anchor="end">3,820 / 4,500</text>
<rect x="792.0" y="346.0" width="586.0" height="12.0" rx="6" fill="#13233d"/>
<rect x="792.0" y="346.0" width="497.5" height="12.0" rx="6" fill="#38bdf8"/>
<rect x="770.0" y="360.0" width="630.0" height="154.0" rx="14" fill="#0f1b30" stroke="#20304c" stroke-width="1"/>
<text x="788.0" y="387.0" font-size="14" fill="#f1f5f9" font-weight="650" text-anchor="start">My Tasks</text>
<text x="788.0" y="403.0" font-size="11" fill="#7a8aa3" font-weight="400" text-anchor="start">Мои задачи</text>
<rect x="786.0" y="416.0" width="598.0" height="32.0" rx="8" fill="#13233d"/>
<rect x="796.0" y="425.0" width="14.0" height="14.0" rx="4" fill="none" stroke="#fbbf24" stroke-width="2"/>
<text x="820.0" y="437.0" font-size="11.5" fill="#c4cee0" font-weight="400" text-anchor="start">Acknowledge helmet alert · A-1188</text>
<text x="1372.0" y="437.0" font-size="10" fill="#5b6b86" font-weight="400" text-anchor="end">due now</text>
<rect x="786.0" y="456.0" width="598.0" height="32.0" rx="8" fill="#13233d"/>
<rect x="796.0" y="465.0" width="14.0" height="14.0" rx="4" fill="none" stroke="#38bdf8" stroke-width="2"/>
<text x="820.0" y="477.0" font-size="11.5" fill="#c4cee0" font-weight="400" text-anchor="start">Confirm pallet count Zone 3</text>
<text x="1372.0" y="477.0" font-size="10" fill="#5b6b86" font-weight="400" text-anchor="end">14:45</text>
<rect x="786.0" y="496.0" width="598.0" height="32.0" rx="8" fill="#13233d"/>
<rect x="796.0" y="505.0" width="14.0" height="14.0" rx="4" fill="none" stroke="#34d399" stroke-width="2"/>
<text x="820.0" y="517.0" font-size="11.5" fill="#c4cee0" font-weight="400" text-anchor="start">Log welder W2 inspection</text>
<text x="1372.0" y="517.0" font-size="10" fill="#5b6b86" font-weight="400" text-anchor="end">15:30</text>
<rect x="100.0" y="534.0" width="1300.0" height="326.0" rx="14" fill="#0f1b30" stroke="#20304c" stroke-width="1"/>
<text x="118.0" y="561.0" font-size="14" fill="#f1f5f9" font-weight="650" text-anchor="start">Recent Events · My Area</text>
<text x="118.0" y="577.0" font-size="11" fill="#7a8aa3" font-weight="400" text-anchor="start">Недавние события · моя зона</text>
<rect x="116.0" y="590.0" width="308.0" height="64.0" rx="10" fill="#13233d" stroke="#20304c" stroke-width="1"/>
<rect x="116.0" y="602.0" width="3.0" height="40.0" rx="2" fill="#fbbf24"/>
<text x="132.0" y="612.0" font-size="10" fill="#5b6b86" font-weight="400" text-anchor="start" font-family="ui-monospace, monospace">14:32</text>
<text x="132.0" y="630.0" font-size="11" fill="#f1f5f9" font-weight="600" text-anchor="start">Helmet Missing · CAM-32</text>
<text x="132.0" y="646.0" font-size="10" fill="#7a8aa3" font-weight="400" text-anchor="start">Отсутствует каска</text>
<rect x="436.0" y="590.0" width="308.0" height="64.0" rx="10" fill="#13233d" stroke="#20304c" stroke-width="1"/>
<rect x="436.0" y="602.0" width="3.0" height="40.0" rx="2" fill="#38bdf8"/>
<text x="452.0" y="612.0" font-size="10" fill="#5b6b86" font-weight="400" text-anchor="start" font-family="ui-monospace, monospace">14:31</text>
<text x="452.0" y="630.0" font-size="11" fill="#f1f5f9" font-weight="600" text-anchor="start">Person entered Zone 3</text>
<text x="452.0" y="646.0" font-size="10" fill="#7a8aa3" font-weight="400" text-anchor="start">Человек вошёл</text>
<rect x="756.0" y="590.0" width="308.0" height="64.0" rx="10" fill="#13233d" stroke="#20304c" stroke-width="1"/>
<rect x="756.0" y="602.0" width="3.0" height="40.0" rx="2" fill="#34d399"/>
<text x="772.0" y="612.0" font-size="10" fill="#5b6b86" font-weight="400" text-anchor="start" font-family="ui-monospace, monospace">14:30</text>
<text x="772.0" y="630.0" font-size="11" fill="#f1f5f9" font-weight="600" text-anchor="start">Pallet counted +1 · CAM-33</text>
<text x="772.0" y="646.0" font-size="10" fill="#7a8aa3" font-weight="400" text-anchor="start">Паллета учтена</text>
<rect x="1076.0" y="590.0" width="308.0" height="64.0" rx="10" fill="#13233d" stroke="#20304c" stroke-width="1"/>
<rect x="1076.0" y="602.0" width="3.0" height="40.0" rx="2" fill="#34d399"/>
<text x="1092.0" y="612.0" font-size="10" fill="#5b6b86" font-weight="400" text-anchor="start" font-family="ui-monospace, monospace">14:27</text>
<text x="1092.0" y="630.0" font-size="11" fill="#f1f5f9" font-weight="600" text-anchor="start">PPE check passed</text>
<text x="1092.0" y="646.0" font-size="10" fill="#7a8aa3" font-weight="400" text-anchor="start">Проверка СИЗ</text>
<rect x="0.0" y="900.0" width="1440.0" height="92.0" rx="0" fill="#070d18"/>
<line x1="0.0" y1="900.0" x2="1440.0" y2="900.0" stroke="#20304c" stroke-width="1"/>
<rect x="30.0" y="924.0" width="10.0" height="44.0" rx="3" fill="#34d399"/>
<text x="52.0" y="938.0" font-size="16" fill="#f1f5f9" font-weight="750" text-anchor="start">User Dashboard</text>
<text x="52.0" y="938.0" font-size="16" fill="#f1f5f9" font-weight="750" text-anchor="start">User Dashboard</text>
<text x="192.0" y="938.0" font-size="12" fill="#7a8aa3" font-weight="400" text-anchor="start">Панель пользователя</text>
<text x="52.0" y="960.0" font-size="11.5" fill="#c4cee0" font-weight="400" text-anchor="start">Personalised operator workspace — only the widgets, cameras, tasks and events relevant to the user&#x27;s role and area.</text>
<rect x="1180.0" y="926.0" width="230.0" height="40.0" rx="9" fill="#13233d" stroke="#20304c" stroke-width="1"/>
<text x="1196.0" y="942.0" font-size="9.5" fill="#5b6b86" font-weight="600" text-anchor="start" letter-spacing="0.4">Realizes</text>
<text x="1196.0" y="957.0" font-size="11" fill="#34d399" font-weight="650" text-anchor="start">Presentation · L1</text>
</svg>