<svg xmlns="http://www.w3.org/2000/svg" width="430" height="972" viewBox="0 0 430 972" font-family="Inter, sans-serif">
<rect x="0.0" y="0.0" width="430.0" height="972.0" rx="0" fill="#0a1120"/>
<rect x="0.0" y="0.0" width="430.0" height="880.0" rx="0" fill="#0a1120"/>
<text x="24.0" y="30.0" font-size="13" fill="#f1f5f9" font-weight="700" text-anchor="start" font-family="ui-monospace, monospace">9:41</text>
<text x="406.0" y="30.0" font-size="11" fill="#c4cee0" font-weight="400" text-anchor="end">5G  ▮▮▮</text>
<text x="24.0" y="72.0" font-size="12" fill="#38bdf8" font-weight="800" text-anchor="start" letter-spacing="2">AI VISION</text>
<text x="24.0" y="98.0" font-size="24" fill="#f1f5f9" font-weight="750" text-anchor="start">Alerts</text>
<text x="24.0" y="118.0" font-size="11.5" fill="#7a8aa3" font-weight="400" text-anchor="start">Оповещения · Zone 3</text>
<circle cx="390.0" cy="86.0" r="16.0" fill="#fb7185" opacity="0.16"/>
<circle cx="390.0" cy="86.0" r="15.0" fill="none" stroke="#fb7185" stroke-width="1"/>
<path d="M 383 90 Q 383 78 390 78 Q 397 78 397 90 Z" fill="none" stroke="#fb7185" stroke-width="1.8" stroke-linejoin="round" stroke-linecap="round"/>
<line x1="388.0" y1="94.0" x2="392.0" y2="94.0" stroke="#fb7185" stroke-width="1.8"/>
<text x="396.0" y="80.0" font-size="9" fill="#fb7185" font-weight="700" text-anchor="start">3</text>
<rect x="24.0" y="140.0" width="119.3" height="58.0" rx="12" fill="#0f1b30" stroke="#20304c" stroke-width="1"/>
<rect x="24.0" y="140.0" width="3.0" height="58.0" rx="2" fill="#34d399"/>
<text x="36.0" y="162.0" font-size="10" fill="#7a8aa3" font-weight="600" text-anchor="start">My OEE</text>
<text x="36.0" y="186.0" font-size="18" fill="#f1f5f9" font-weight="750" text-anchor="start">86%</text>
<rect x="155.3" y="140.0" width="119.3" height="58.0" rx="12" fill="#0f1b30" stroke="#20304c" stroke-width="1"/>
<rect x="155.3" y="140.0" width="3.0" height="58.0" rx="2" fill="#fbbf24"/>
<text x="167.3" y="162.0" font-size="10" fill="#7a8aa3" font-weight="600" text-anchor="start">Alerts</text>
<text x="167.3" y="186.0" font-size="18" fill="#f1f5f9" font-weight="750" text-anchor="start">3</text>
<rect x="286.7" y="140.0" width="119.3" height="58.0" rx="12" fill="#0f1b30" stroke="#20304c" stroke-width="1"/>
<rect x="286.7" y="140.0" width="3.0" height="58.0" rx="2" fill="#38bdf8"/>
<text x="298.7" y="162.0" font-size="10" fill="#7a8aa3" font-weight="600" text-anchor="start">Line</text>
<text x="298.7" y="186.0" font-size="18" fill="#f1f5f9" font-weight="750" text-anchor="start">Run</text>
<rect x="24.0" y="214.0" width="382.0" height="150.0" rx="14" fill="#0f1b30" stroke="#fb7185" stroke-width="1.4"/>
<rect x="24.0" y="214.0" width="4.0" height="150.0" rx="2" fill="#fb7185"/>
<rect x="38.0" y="230.0" width="120.0" height="118.0" rx="9" fill="#0e1c2e" stroke="#20304c" stroke-width="1"/>
<rect x="70.0" y="258.0" width="40.0" height="70.0" rx="3" fill="none" stroke="#fb7185" stroke-width="2"/>
<rect x="70.0" y="244.0" width="58.0" height="12.0" rx="2" fill="#fb7185"/>
<text x="74.0" y="254.0" font-size="7.5" fill="#3a0710" font-weight="700" text-anchor="start">NO HELMET</text>
<text x="174.0" y="248.0" font-size="15" fill="#f1f5f9" font-weight="700" text-anchor="start">Helmet Missing</text>
<text x="174.0" y="266.0" font-size="10.5" fill="#7a8aa3" font-weight="400" text-anchor="start">Отсутствует каска</text>
<text x="174.0" y="292.0" font-size="11" fill="#c4cee0" font-weight="400" text-anchor="start">CAM-32 · Zone 3 Assembly</text>
<text x="174.0" y="310.0" font-size="11" fill="#c4cee0" font-weight="400" text-anchor="start">Worker #A-1188</text>
<rect x="174.0" y="322.0" width="86.0" height="26.0" rx="8" fill="#fb7185" stroke="#fb7185" stroke-width="1" opacity="0.16"/>
<text x="217.0" y="339.0" font-size="10.5" fill="#fb7185" font-weight="650" text-anchor="middle">Acknowledge</text>
<text x="392.0" y="248.0" font-size="10" fill="#5b6b86" font-weight="400" text-anchor="end" font-family="ui-monospace, monospace">2m</text>
<text x="24.0" y="384.0" font-size="13" fill="#f1f5f9" font-weight="700" text-anchor="start">Recent</text>
<text x="84.0" y="384.0" font-size="10.5" fill="#7a8aa3" font-weight="400" text-anchor="start">Недавние</text>
<rect x="24.0" y="400.0" width="382.0" height="52.0" rx="12" fill="#0f1b30" stroke="#20304c" stroke-width="1"/>
<rect x="24.0" y="412.0" width="3.0" height="28.0" rx="2" fill="#fbbf24"/>
<circle cx="44.0" cy="426.0" r="10.0" fill="#fbbf24" opacity="0.16"/>
<circle cx="44.0" cy="426.0" r="3.4" fill="#fbbf24"/>
<text x="64.0" y="423.0" font-size="12.5" fill="#f1f5f9" font-weight="600" text-anchor="start">Forklift too close</text>
<text x="64.0" y="440.0" font-size="10" fill="#7a8aa3" font-weight="400" text-anchor="start">Погрузчик близко</text>
<text x="392.0" y="423.0" font-size="9.5" fill="#5b6b86" font-weight="400" text-anchor="end" font-family="ui-monospace, monospace">4m</text>
<rect x="24.0" y="462.0" width="382.0" height="52.0" rx="12" fill="#0f1b30" stroke="#20304c" stroke-width="1"/>
<rect x="24.0" y="474.0" width="3.0" height="28.0" rx="2" fill="#38bdf8"/>
<circle cx="44.0" cy="488.0" r="10.0" fill="#38bdf8" opacity="0.16"/>
<circle cx="44.0" cy="488.0" r="3.4" fill="#38bdf8"/>
<text x="64.0" y="485.0" font-size="12.5" fill="#f1f5f9" font-weight="600" text-anchor="start">Person entered Zone 3</text>
<text x="64.0" y="502.0" font-size="10" fill="#7a8aa3" font-weight="400" text-anchor="start">Человек вошёл</text>
<text x="392.0" y="485.0" font-size="9.5" fill="#5b6b86" font-weight="400" text-anchor="end" font-family="ui-monospace, monospace">6m</text>
<rect x="24.0" y="524.0" width="382.0" height="52.0" rx="12" fill="#0f1b30" stroke="#20304c" stroke-width="1"/>
<rect x="24.0" y="536.0" width="3.0" height="28.0" rx="2" fill="#34d399"/>
<circle cx="44.0" cy="550.0" r="10.0" fill="#34d399" opacity="0.16"/>
<circle cx="44.0" cy="550.0" r="3.4" fill="#34d399"/>
<text x="64.0" y="547.0" font-size="12.5" fill="#f1f5f9" font-weight="600" text-anchor="start">Pallet counted +1</text>
<text x="64.0" y="564.0" font-size="10" fill="#7a8aa3" font-weight="400" text-anchor="start">Паллета учтена</text>
<text x="392.0" y="547.0" font-size="9.5" fill="#5b6b86" font-weight="400" text-anchor="end" font-family="ui-monospace, monospace">8m</text>
<rect x="24.0" y="586.0" width="382.0" height="52.0" rx="12" fill="#0f1b30" stroke="#20304c" stroke-width="1"/>
<rect x="24.0" y="598.0" width="3.0" height="28.0" rx="2" fill="#34d399"/>
<circle cx="44.0" cy="612.0" r="10.0" fill="#34d399" opacity="0.16"/>
<circle cx="44.0" cy="612.0" r="3.4" fill="#34d399"/>
<text x="64.0" y="609.0" font-size="12.5" fill="#f1f5f9" font-weight="600" text-anchor="start">PPE check passed</text>
<text x="64.0" y="626.0" font-size="10" fill="#7a8aa3" font-weight="400" text-anchor="start">Проверка СИЗ</text>
<text x="392.0" y="609.0" font-size="9.5" fill="#5b6b86" font-weight="400" text-anchor="end" font-family="ui-monospace, monospace">12m</text>
<rect x="24.0" y="648.0" width="382.0" height="52.0" rx="12" fill="#0f1b30" stroke="#20304c" stroke-width="1"/>
<rect x="24.0" y="660.0" width="3.0" height="28.0" rx="2" fill="#fbbf24"/>
<circle cx="44.0" cy="674.0" r="10.0" fill="#fbbf24" opacity="0.16"/>
<circle cx="44.0" cy="674.0" r="3.4" fill="#fbbf24"/>
<text x="64.0" y="671.0" font-size="12.5" fill="#f1f5f9" font-weight="600" text-anchor="start">Idle · Station 4</text>
<text x="64.0" y="688.0" font-size="10" fill="#7a8aa3" font-weight="400" text-anchor="start">Простой</text>
<text x="392.0" y="671.0" font-size="9.5" fill="#5b6b86" font-weight="400" text-anchor="end" font-family="ui-monospace, monospace">15m</text>
<rect x="0.0" y="816.0" width="430.0" height="64.0" rx="0" fill="#0c1526"/>
<line x1="0.0" y1="816.0" x2="430.0" y2="816.0" stroke="#20304c" stroke-width="1"/>
<circle cx="53.8" cy="840.0" r="5.0" fill="#38bdf8"/>
<text x="53.8" y="864.0" font-size="9.5" fill="#38bdf8" font-weight="650" text-anchor="middle">Home</text>
<circle cx="161.2" cy="840.0" r="4.0" fill="#5b6b86"/>
<text x="161.2" y="864.0" font-size="9.5" fill="#5b6b86" font-weight="500" text-anchor="middle">Cameras</text>
<circle cx="268.8" cy="840.0" r="4.0" fill="#5b6b86"/>
<text x="268.8" y="864.0" font-size="9.5" fill="#5b6b86" font-weight="500" text-anchor="middle">Alerts</text>
<circle cx="376.2" cy="840.0" r="4.0" fill="#5b6b86"/>
<text x="376.2" y="864.0" font-size="9.5" fill="#5b6b86" font-weight="500" text-anchor="middle">More</text>
<rect x="0.0" y="880.0" width="430.0" height="92.0" rx="0" fill="#070d18"/>
<line x1="0.0" y1="880.0" x2="430.0" y2="880.0" stroke="#20304c" stroke-width="1"/>
<rect x="30.0" y="904.0" width="10.0" height="44.0" rx="3" fill="#22d3ee"/>
<text x="52.0" y="918.0" font-size="16" fill="#f1f5f9" font-weight="750" text-anchor="start">Mobile Application</text>
<text x="52.0" y="918.0" font-size="16" fill="#f1f5f9" font-weight="750" text-anchor="start">Mobile Application</text>
<text x="228.0" y="918.0" font-size="12" fill="#7a8aa3" font-weight="400" text-anchor="start">Мобильное приложение</text>
<text x="52.0" y="940.0" font-size="11.5" fill="#c4cee0" font-weight="400" text-anchor="start">On-the-go client — alerts, live snapshots and key metrics so supervisors can respond to incidents away from a desk.</text>
<rect x="170.0" y="906.0" width="230.0" height="40.0" rx="9" fill="#13233d" stroke="#20304c" stroke-width="1"/>
<text x="186.0" y="922.0" font-size="9.5" fill="#5b6b86" font-weight="600" text-anchor="start" letter-spacing="0.4">Realizes</text>
<text x="186.0" y="937.0" font-size="11" fill="#22d3ee" font-weight="650" text-anchor="start">Presentation · L1</text>
</svg>