<svg xmlns="http://www.w3.org/2000/svg" width="1440" height="992" viewBox="0 0 1440 992" font-family="Inter, sans-serif">
<rect x="0.0" y="0.0" width="1440.0" height="992.0" rx="0" fill="#0a1120"/>
<rect x="0.0" y="0.0" width="76.0" height="900.0" rx="0" fill="#0c1526"/>
<line x1="76.0" y1="0.0" x2="76.0" y2="900.0" stroke="#20304c" stroke-width="1"/>
<rect x="22.0" y="26.0" width="32.0" height="32.0" rx="9" fill="#0b1624"/>
<circle cx="38.0" cy="42.0" r="9.0" fill="none" stroke="#38bdf8" stroke-width="2.4"/>
<circle cx="38.0" cy="42.0" r="3.4" fill="#38bdf8"/>
<path d="M 29.0 116 L 38.0 104 L 47.0 116 M 32.0 113 L 32.0 119 L 44.0 119 L 44.0 113" fill="none" stroke="#5b6b86" stroke-width="2" stroke-linejoin="round" stroke-linecap="round"/>
<rect x="31.0" y="161.0" width="8.0" height="8.0" rx="2" fill="none" stroke="#5b6b86" stroke-width="2"/>
<rect x="31.0" y="171.0" width="8.0" height="8.0" rx="2" fill="none" stroke="#5b6b86" stroke-width="2"/>
<rect x="41.0" y="161.0" width="8.0" height="8.0" rx="2" fill="none" stroke="#5b6b86" stroke-width="2"/>
<rect x="41.0" y="171.0" width="8.0" height="8.0" rx="2" fill="none" stroke="#5b6b86" stroke-width="2"/>
<rect x="28.0" y="220.0" width="13.0" height="12.0" rx="2" fill="none" stroke="#5b6b86" stroke-width="2"/>
<path d="M 42.0 224 L 48.0 220 L 48.0 232 L 42.0 228 Z" fill="none" stroke="#5b6b86" stroke-width="2" stroke-linejoin="round" stroke-linecap="round"/>
<path d="M 29.0 292 L 29.0 276 M 29.0 292 L 47.0 292" fill="none" stroke="#5b6b86" stroke-width="2" stroke-linejoin="round" stroke-linecap="round"/>
<path d="M 33.0 287 L 37.0 281 L 41.0 284 L 46.0 277" fill="none" stroke="#5b6b86" stroke-width="2" stroke-linejoin="round" stroke-linecap="round"/>
<path d="M 31.0 346 Q 31.0 334 38.0 334 Q 45.0 334 45.0 346 Z" fill="none" stroke="#5b6b86" stroke-width="2" stroke-linejoin="round" stroke-linecap="round"/>
<line x1="36.0" y1="350.0" x2="40.0" y2="350.0" stroke="#5b6b86" stroke-width="2"/>
<rect x="10.0" y="384.0" width="56.0" height="44.0" rx="11" fill="#38bdf8" opacity="0.16"/>
<rect x="0.0" y="384.0" width="3.0" height="44.0" rx="2" fill="#38bdf8"/>
<circle cx="38.0" cy="400.0" r="6.0" fill="none" stroke="#38bdf8" stroke-width="2"/>
<circle cx="38.0" cy="400.0" r="2.0" fill="#38bdf8"/>
<rect x="76.0" y="0.0" width="1364.0" height="64.0" rx="0" fill="#122341"/>
<line x1="76.0" y1="64.0" x2="1440.0" y2="64.0" stroke="#20304c" stroke-width="1"/>
<text x="102.0" y="30.0" font-size="17" fill="#f1f5f9" font-weight="700" text-anchor="start">Maintenance &amp; Equipment</text>
<text x="102.0" y="48.0" font-size="11.5" fill="#7a8aa3" font-weight="400" text-anchor="start">Обслуживание и оборудование</text>
<rect x="1080.0" y="17.0" width="190.0" height="30.0" rx="8" fill="#13233d" stroke="#20304c" stroke-width="1"/>
<circle cx="1098.0" cy="32.0" r="5.0" fill="none" stroke="#5b6b86" stroke-width="1.6"/>
<line x1="1102.0" y1="36.0" x2="1107.0" y2="41.0" stroke="#5b6b86" stroke-width="1.6"/>
<text x="1114.0" y="36.0" font-size="11.5" fill="#5b6b86" font-weight="400" text-anchor="start">Search…</text>
<circle cx="1290.0" cy="32.0" r="4.0" fill="#34d399"/>
<text x="1300.0" y="36.0" font-size="12" fill="#c4cee0" font-weight="600" text-anchor="start" font-family="ui-monospace, monospace">14:32:07</text>
<circle cx="1400.0" cy="32.0" r="15.0" fill="#a78bfa" opacity="0.35"/>
<text x="1400.0" y="37.0" font-size="11" fill="#f1f5f9" font-weight="700" text-anchor="middle">OJ</text>
<rect x="100.0" y="88.0" width="310.0" height="104.0" rx="13" fill="#0f1b30" stroke="#20304c" stroke-width="1"/>
<rect x="100.0" y="88.0" width="4.0" height="104.0" rx="2" fill="#34d399"/>
<text x="118.0" y="114.0" font-size="11.5" fill="#7a8aa3" font-weight="600" text-anchor="start" letter-spacing="0.3">MACHINES RUNNING</text>
<text x="117.0" y="150.0" font-size="30" fill="#f1f5f9" font-weight="750" text-anchor="start">42</text>
<text x="157.0" y="150.0" font-size="13" fill="#7a8aa3" font-weight="600" text-anchor="start">/45</text>
<text x="118.0" y="176.0" font-size="11.5" fill="#34d399" font-weight="650" text-anchor="start">▲ 93%</text>
<rect x="430.0" y="88.0" width="310.0" height="104.0" rx="13" fill="#0f1b30" stroke="#20304c" stroke-width="1"/>
<rect x="430.0" y="88.0" width="4.0" height="104.0" rx="2" fill="#fb7185"/>
<text x="448.0" y="114.0" font-size="11.5" fill="#7a8aa3" font-weight="600" text-anchor="start" letter-spacing="0.3">IN FAULT</text>
<text x="447.0" y="150.0" font-size="30" fill="#f1f5f9" font-weight="750" text-anchor="start">1</text>
<text x="448.0" y="176.0" font-size="11.5" fill="#fb7185" font-weight="650" text-anchor="start">▼ Press A4</text>
<rect x="760.0" y="88.0" width="310.0" height="104.0" rx="13" fill="#0f1b30" stroke="#20304c" stroke-width="1"/>
<rect x="760.0" y="88.0" width="4.0" height="104.0" rx="2" fill="#38bdf8"/>
<text x="778.0" y="114.0" font-size="11.5" fill="#7a8aa3" font-weight="600" text-anchor="start" letter-spacing="0.3">AVG MTBF</text>
<text x="777.0" y="150.0" font-size="30" fill="#f1f5f9" font-weight="750" text-anchor="start">186</text>
<text x="834.0" y="150.0" font-size="13" fill="#7a8aa3" font-weight="600" text-anchor="start">h</text>
<text x="778.0" y="176.0" font-size="11.5" fill="#34d399" font-weight="650" text-anchor="start">▲ +12h</text>
<rect x="1090.0" y="88.0" width="310.0" height="104.0" rx="13" fill="#0f1b30" stroke="#20304c" stroke-width="1"/>
<rect x="1090.0" y="88.0" width="4.0" height="104.0" rx="2" fill="#fbbf24"/>
<text x="1108.0" y="114.0" font-size="11.5" fill="#7a8aa3" font-weight="600" text-anchor="start" letter-spacing="0.3">PM DUE TODAY</text>
<text x="1107.0" y="150.0" font-size="30" fill="#f1f5f9" font-weight="750" text-anchor="start">4</text>
<text x="1108.0" y="176.0" font-size="11.5" fill="#fb7185" font-weight="650" text-anchor="start">▼ 2 overdue</text>
<rect x="100.0" y="212.0" width="715.0" height="316.0" rx="14" fill="#0f1b30" stroke="#20304c" stroke-width="1"/>
<text x="118.0" y="239.0" font-size="14" fill="#f1f5f9" font-weight="650" text-anchor="start">Equipment Health</text>
<text x="118.0" y="255.0" font-size="11" fill="#7a8aa3" font-weight="400" text-anchor="start">Состояние оборудования</text>
<rect x="116.0" y="270.0" width="683.0" height="34.0" rx="9" fill="#13233d"/>
<circle cx="132.0" cy="287.0" r="4.0" fill="#fb7185"/>
<text x="146.0" y="285.0" font-size="12" fill="#f1f5f9" font-weight="600" text-anchor="start">Press A4</text>
<text x="146.0" y="298.0" font-size="10" fill="#7a8aa3" font-weight="400" text-anchor="start">Fault · bearing temp</text>
<rect x="609.0" y="283.0" width="110.0" height="8.0" rx="4" fill="#152847"/>
<rect x="609.0" y="283.0" width="24.2" height="8.0" rx="4" fill="#fb7185"/>
<text x="727.0" y="291.0" font-size="10.5" fill="#c4cee0" font-weight="600" text-anchor="start">22%</text>
<text x="791.0" y="291.0" font-size="10" fill="#5b6b86" font-weight="400" text-anchor="end">PM now</text>
<rect x="116.0" y="312.0" width="683.0" height="34.0" rx="9" fill="#13233d"/>
<circle cx="132.0" cy="329.0" r="4.0" fill="#34d399"/>
<text x="146.0" y="327.0" font-size="12" fill="#f1f5f9" font-weight="600" text-anchor="start">Line 1 Assembly</text>
<text x="146.0" y="340.0" font-size="10" fill="#7a8aa3" font-weight="400" text-anchor="start">Running</text>
<rect x="609.0" y="325.0" width="110.0" height="8.0" rx="4" fill="#152847"/>
<rect x="609.0" y="325.0" width="105.6" height="8.0" rx="4" fill="#34d399"/>
<text x="727.0" y="333.0" font-size="10.5" fill="#c4cee0" font-weight="600" text-anchor="start">96%</text>
<text x="791.0" y="333.0" font-size="10" fill="#5b6b86" font-weight="400" text-anchor="end">PM in 6d</text>
<rect x="116.0" y="354.0" width="683.0" height="34.0" rx="9" fill="#13233d"/>
<circle cx="132.0" cy="371.0" r="4.0" fill="#fbbf24"/>
<text x="146.0" y="369.0" font-size="12" fill="#f1f5f9" font-weight="600" text-anchor="start">Welder W2</text>
<text x="146.0" y="382.0" font-size="10" fill="#7a8aa3" font-weight="400" text-anchor="start">Running · vibration ↑</text>
<rect x="609.0" y="367.0" width="110.0" height="8.0" rx="4" fill="#152847"/>
<rect x="609.0" y="367.0" width="78.1" height="8.0" rx="4" fill="#fbbf24"/>
<text x="727.0" y="375.0" font-size="10.5" fill="#c4cee0" font-weight="600" text-anchor="start">71%</text>
<text x="791.0" y="375.0" font-size="10" fill="#5b6b86" font-weight="400" text-anchor="end">PM in 2d</text>
<rect x="116.0" y="396.0" width="683.0" height="34.0" rx="9" fill="#13233d"/>
<circle cx="132.0" cy="413.0" r="4.0" fill="#34d399"/>
<text x="146.0" y="411.0" font-size="12" fill="#f1f5f9" font-weight="600" text-anchor="start">Conveyor C2</text>
<text x="146.0" y="424.0" font-size="10" fill="#7a8aa3" font-weight="400" text-anchor="start">Running</text>
<rect x="609.0" y="409.0" width="110.0" height="8.0" rx="4" fill="#152847"/>
<rect x="609.0" y="409.0" width="96.8" height="8.0" rx="4" fill="#34d399"/>
<text x="727.0" y="417.0" font-size="10.5" fill="#c4cee0" font-weight="600" text-anchor="start">88%</text>
<text x="791.0" y="417.0" font-size="10" fill="#5b6b86" font-weight="400" text-anchor="end">PM in 9d</text>
<rect x="116.0" y="438.0" width="683.0" height="34.0" rx="9" fill="#13233d"/>
<circle cx="132.0" cy="455.0" r="4.0" fill="#34d399"/>
<text x="146.0" y="453.0" font-size="12" fill="#f1f5f9" font-weight="600" text-anchor="start">Line 2 Packaging</text>
<text x="146.0" y="466.0" font-size="10" fill="#7a8aa3" font-weight="400" text-anchor="start">Running</text>
<rect x="609.0" y="451.0" width="110.0" height="8.0" rx="4" fill="#152847"/>
<rect x="609.0" y="451.0" width="102.3" height="8.0" rx="4" fill="#34d399"/>
<text x="727.0" y="459.0" font-size="10.5" fill="#c4cee0" font-weight="600" text-anchor="start">93%</text>
<text x="791.0" y="459.0" font-size="10" fill="#5b6b86" font-weight="400" text-anchor="end">PM in 4d</text>
<rect x="116.0" y="480.0" width="683.0" height="34.0" rx="9" fill="#13233d"/>
<circle cx="132.0" cy="497.0" r="4.0" fill="#38bdf8"/>
<text x="146.0" y="495.0" font-size="12" fill="#f1f5f9" font-weight="600" text-anchor="start">Robot Cell R3</text>
<text x="146.0" y="508.0" font-size="10" fill="#7a8aa3" font-weight="400" text-anchor="start">Idle · scheduled</text>
<rect x="609.0" y="493.0" width="110.0" height="8.0" rx="4" fill="#152847"/>
<rect x="609.0" y="493.0" width="88.0" height="8.0" rx="4" fill="#38bdf8"/>
<text x="727.0" y="501.0" font-size="10.5" fill="#c4cee0" font-weight="600" text-anchor="start">80%</text>
<text x="791.0" y="501.0" font-size="10" fill="#5b6b86" font-weight="400" text-anchor="end">PM today</text>
<rect x="835.0" y="212.0" width="565.0" height="180.0" rx="14" fill="#0f1b30" stroke="#20304c" stroke-width="1"/>
<text x="853.0" y="239.0" font-size="14" fill="#f1f5f9" font-weight="650" text-anchor="start">Downtime (min / day, 14d)</text>
<text x="853.0" y="255.0" font-size="11" fill="#7a8aa3" font-weight="400" text-anchor="start">Простои (мин/день, 14д)</text>
<line x1="857.0" y1="272.0" x2="1378.0" y2="272.0" stroke="#20304c" stroke-width="1" opacity="0.4"/>
<line x1="857.0" y1="304.0" x2="1378.0" y2="304.0" stroke="#20304c" stroke-width="1" opacity="0.4"/>
<line x1="857.0" y1="336.0" x2="1378.0" y2="336.0" stroke="#20304c" stroke-width="1" opacity="0.4"/>
<line x1="857.0" y1="368.0" x2="1378.0" y2="368.0" stroke="#20304c" stroke-width="1" opacity="0.4"/>
<rect x="864.4" y="313.1" width="22.3" height="54.9" rx="4" fill="#a78bfa" opacity="0.9"/>
<rect x="901.7" y="337.8" width="22.3" height="30.2" rx="4" fill="#a78bfa" opacity="0.9"/>
<rect x="938.9" y="280.2" width="22.3" height="87.8" rx="4" fill="#a78bfa" opacity="0.9"/>
<rect x="976.1" y="343.3" width="22.3" height="24.7" rx="4" fill="#a78bfa" opacity="0.9"/>
<rect x="1013.3" y="326.9" width="22.3" height="41.1" rx="4" fill="#a78bfa" opacity="0.9"/>
<rect x="1050.5" y="351.5" width="22.3" height="16.5" rx="4" fill="#a78bfa" opacity="0.9"/>
<rect x="1087.7" y="296.7" width="22.3" height="71.3" rx="4" fill="#a78bfa" opacity="0.9"/>
<rect x="1124.9" y="332.3" width="22.3" height="35.7" rx="4" fill="#a78bfa" opacity="0.9"/>
<rect x="1162.2" y="348.8" width="22.3" height="19.2" rx="4" fill="#a78bfa" opacity="0.9"/>
<rect x="1199.4" y="315.9" width="22.3" height="52.1" rx="4" fill="#a78bfa" opacity="0.9"/>
<rect x="1236.6" y="340.6" width="22.3" height="27.4" rx="4" fill="#a78bfa" opacity="0.9"/>
<rect x="1273.8" y="307.7" width="22.3" height="60.3" rx="4" fill="#a78bfa" opacity="0.9"/>
<rect x="1311.0" y="346.1" width="22.3" height="21.9" rx="4" fill="#a78bfa" opacity="0.9"/>
<rect x="1348.2" y="329.6" width="22.3" height="38.4" rx="4" fill="#a78bfa" opacity="0.9"/>
<rect x="835.0" y="408.0" width="565.0" height="120.0" rx="14" fill="#0f1b30" stroke="#20304c" stroke-width="1"/>
<text x="853.0" y="435.0" font-size="14" fill="#f1f5f9" font-weight="650" text-anchor="start">Fault Breakdown</text>
<text x="853.0" y="451.0" font-size="11" fill="#7a8aa3" font-weight="400" text-anchor="start">Причины отказов</text>
<circle cx="1117.5" cy="502.0" r="56.0" fill="none" stroke="#2a3c5a" stroke-width="12"/>
<path d="M 1117.5 446.0 A 56 56 0 1 1 1074.4 537.7" fill="none" stroke="#fb7185" stroke-width="12" stroke-linejoin="round" stroke-linecap="round"/>
<text x="1117.5" y="506.0" font-size="30" fill="#f1f5f9" font-weight="750" text-anchor="middle">64</text>
<text x="1117.5" y="526.0" font-size="10.5" fill="#7a8aa3" font-weight="400" text-anchor="middle">fault h</text>
<rect x="100.0" y="548.0" width="1300.0" height="312.0" rx="14" fill="#0f1b30" stroke="#20304c" stroke-width="1"/>
<text x="118.0" y="575.0" font-size="14" fill="#f1f5f9" font-weight="650" text-anchor="start">Maintenance Schedule</text>
<text x="118.0" y="591.0" font-size="11" fill="#7a8aa3" font-weight="400" text-anchor="start">График обслуживания</text>
<text x="124.0" y="618.0" font-size="10.5" fill="#5b6b86" font-weight="650" text-anchor="start" letter-spacing="0.3">Asset</text>
<text x="349.4" y="618.0" font-size="10.5" fill="#5b6b86" font-weight="650" text-anchor="start" letter-spacing="0.3">Task</text>
<text x="850.2" y="618.0" font-size="10.5" fill="#5b6b86" font-weight="650" text-anchor="start" letter-spacing="0.3">When</text>
<text x="1150.6" y="618.0" font-size="10.5" fill="#5b6b86" font-weight="650" text-anchor="start" letter-spacing="0.3">Status</text>
<line x1="124.0" y1="626.0" x2="1376.0" y2="626.0" stroke="#20304c" stroke-width="1"/>
<text x="124.0" y="648.0" font-size="11.5" fill="#f1f5f9" font-weight="600" text-anchor="start">Press A4</text>
<text x="349.4" y="648.0" font-size="11.5" fill="#c4cee0" font-weight="400" text-anchor="start">Emergency repair · bearing</text>
<text x="850.2" y="648.0" font-size="11.5" fill="#c4cee0" font-weight="400" text-anchor="start">Now</text>
<rect x="1150.6" y="635.0" width="64.8" height="19.0" rx="9" fill="#fb7185" opacity="0.16"/>
<circle cx="1161.6" cy="644.0" r="3.0" fill="#fb7185"/>
<text x="1170.6" y="648.0" font-size="10.5" fill="#fb7185" font-weight="600" text-anchor="start">Overdue</text>
<line x1="124.0" y1="658.0" x2="1376.0" y2="658.0" stroke="#20304c" stroke-width="1" opacity="0.5"/>
<text x="124.0" y="680.0" font-size="11.5" fill="#f1f5f9" font-weight="600" text-anchor="start">Welder W2</text>
<text x="349.4" y="680.0" font-size="11.5" fill="#c4cee0" font-weight="400" text-anchor="start">Preventive · torch calibration</text>
<text x="850.2" y="680.0" font-size="11.5" fill="#c4cee0" font-weight="400" text-anchor="start">15:30 today</text>
<rect x="1150.6" y="667.0" width="39.2" height="19.0" rx="9" fill="#fbbf24" opacity="0.16"/>
<circle cx="1161.6" cy="676.0" r="3.0" fill="#fbbf24"/>
<text x="1170.6" y="680.0" font-size="10.5" fill="#fbbf24" font-weight="600" text-anchor="start">Due</text>
<line x1="124.0" y1="690.0" x2="1376.0" y2="690.0" stroke="#20304c" stroke-width="1" opacity="0.5"/>
<text x="124.0" y="712.0" font-size="11.5" fill="#f1f5f9" font-weight="600" text-anchor="start">Robot Cell R3</text>
<text x="349.4" y="712.0" font-size="11.5" fill="#c4cee0" font-weight="400" text-anchor="start">Inspection · axis check</text>
<text x="850.2" y="712.0" font-size="11.5" fill="#c4cee0" font-weight="400" text-anchor="start">16:00 today</text>
<rect x="1150.6" y="699.0" width="39.2" height="19.0" rx="9" fill="#fbbf24" opacity="0.16"/>
<circle cx="1161.6" cy="708.0" r="3.0" fill="#fbbf24"/>
<text x="1170.6" y="712.0" font-size="10.5" fill="#fbbf24" font-weight="600" text-anchor="start">Due</text>
<line x1="124.0" y1="722.0" x2="1376.0" y2="722.0" stroke="#20304c" stroke-width="1" opacity="0.5"/>
<text x="124.0" y="744.0" font-size="11.5" fill="#f1f5f9" font-weight="600" text-anchor="start">Conveyor C2</text>
<text x="349.4" y="744.0" font-size="11.5" fill="#c4cee0" font-weight="400" text-anchor="start">Lubrication</text>
<text x="850.2" y="744.0" font-size="11.5" fill="#c4cee0" font-weight="400" text-anchor="start">Tomorrow 09:00</text>
<rect x="1150.6" y="731.0" width="77.6" height="19.0" rx="9" fill="#38bdf8" opacity="0.16"/>
<circle cx="1161.6" cy="740.0" r="3.0" fill="#38bdf8"/>
<text x="1170.6" y="744.0" font-size="10.5" fill="#38bdf8" font-weight="600" text-anchor="start">Scheduled</text>
<line x1="124.0" y1="754.0" x2="1376.0" y2="754.0" stroke="#20304c" stroke-width="1" opacity="0.5"/>
<rect x="0.0" y="900.0" width="1440.0" height="92.0" rx="0" fill="#070d18"/>
<line x1="0.0" y1="900.0" x2="1440.0" y2="900.0" stroke="#20304c" stroke-width="1"/>
<rect x="30.0" y="924.0" width="10.0" height="44.0" rx="3" fill="#a78bfa"/>
<text x="52.0" y="938.0" font-size="16" fill="#f1f5f9" font-weight="750" text-anchor="start">Maintenance &amp; Equipment</text>
<text x="52.0" y="938.0" font-size="16" fill="#f1f5f9" font-weight="750" text-anchor="start">Maintenance &amp; Equipment</text>
<text x="273.0" y="938.0" font-size="12" fill="#7a8aa3" font-weight="400" text-anchor="start">Обслуживание и оборудование</text>
<text x="52.0" y="960.0" font-size="11.5" fill="#c4cee0" font-weight="400" text-anchor="start">Condition monitoring and service planning — machine health, fault causes, downtime trends and a live preventive-maintenance schedule.</text>
<rect x="1180.0" y="926.0" width="230.0" height="40.0" rx="9" fill="#13233d" stroke="#20304c" stroke-width="1"/>
<text x="1196.0" y="942.0" font-size="9.5" fill="#5b6b86" font-weight="600" text-anchor="start" letter-spacing="0.4">Realizes</text>
<text x="1196.0" y="957.0" font-size="11" fill="#a78bfa" font-weight="650" text-anchor="start">Machine Service · L7</text>
</svg>